<?xml version="1.0" encoding="utf-8"?>
<svg version="1.1" xmlns:xlink="http://www.w3.org/1999/xlink" width="197px" height="45px" xmlns="http://www.w3.org/2000/svg">
  <g transform="matrix(1 0 0 1 -71 -206 )">
    <path d="M 250.238567499428 206.5  C 250.238567499428 206.5  253.741056998721 206.900030526569  253.741056998721 206.900030526569  C 253.741056998721 206.900030526569  267.459586833545 228.5  267.459586833545 228.5  C 267.459586833545 228.5  253.741056998721 250.099969473431  253.741056998721 250.099969473431  C 253.741056998721 250.099969473431  250.238567499428 250.5  250.238567499428 250.5  C 250.238567499428 250.5  71.5 250.5  71.5 250.5  C 71.5 250.5  71.5 206.5  71.5 206.5  C 71.5 206.5  250.238567499428 206.5  250.238567499428 206.5  Z " fill-rule="nonzero" fill="#ffffff" stroke="none" />
    <path d="M 250.238567499428 206.5  C 250.238567499428 206.5  253.741056998721 206.900030526569  253.741056998721 206.900030526569  C 253.741056998721 206.900030526569  267.459586833545 228.5  267.459586833545 228.5  C 267.459586833545 228.5  253.741056998721 250.099969473431  253.741056998721 250.099969473431  C 253.741056998721 250.099969473431  250.238567499428 250.5  250.238567499428 250.5  C 250.238567499428 250.5  71.5 250.5  71.5 250.5  C 71.5 250.5  71.5 206.5  71.5 206.5  C 71.5 206.5  250.238567499428 206.5  250.238567499428 206.5  Z " stroke-width="1" stroke="#f2f2f2" fill="none" />
  </g>
</svg>