<?xml version="1.0" encoding="utf-8"?>
<svg version="1.1" xmlns:xlink="http://www.w3.org/1999/xlink" width="40px" height="40px" xmlns="http://www.w3.org/2000/svg">
  <g transform="matrix(1 0 0 1 -86 -251 )">
    <path d="M 106 251  C 117.2 251  126 259.8  126 271  C 126 282.2  117.2 291  106 291  C 94.8 291  86 282.2  86 271  C 86 259.8  94.8 251  106 251  Z " fill-rule="nonzero" fill="#ffffff" stroke="none" />
    <path d="M 106 251.5  C 116.92 251.5  125.5 260.08  125.5 271  C 125.5 281.92  116.92 290.5  106 290.5  C 95.08 290.5  86.5 281.92  86.5 271  C 86.5 260.08  95.08 251.5  106 251.5  Z " stroke-width="1" stroke="#797979" fill="none" />
  </g>
</svg>