<?xml version="1.0" encoding="utf-8"?>
<svg version="1.1" xmlns:xlink="http://www.w3.org/1999/xlink" width="12px" height="12px" viewBox="285 447  12 12" xmlns="http://www.w3.org/2000/svg">
  <path d="M 291 447  C 294.36 447  297 449.64  297 453  C 297 456.36  294.36 459  291 459  C 287.64 459  285 456.36  285 453  C 285 449.64  287.64 447  291 447  Z " fill-rule="nonzero" fill="#f0f0f0" stroke="none" />
  <path d="M 291 447.5  C 294.08 447.5  296.5 449.92  296.5 453  C 296.5 456.08  294.08 458.5  291 458.5  C 287.92 458.5  285.5 456.08  285.5 453  C 285.5 449.92  287.92 447.5  291 447.5  Z " stroke-width="1" stroke="#797979" fill="none" />
  <path d="M 291 456  C 289.32 456  288 454.68  288 453  C 288 451.32  289.32 450  291 450  C 292.68 450  294 451.32  294 453  C 294 454.68  292.68 456  291 456  " fill-rule="nonzero" fill="#797979" stroke="none" />
</svg>