<?xml version="1.0" encoding="utf-8"?>
<svg version="1.1" xmlns:xlink="http://www.w3.org/1999/xlink" width="12px" height="12px" viewBox="733 446  12 12" xmlns="http://www.w3.org/2000/svg">
  <path d="M 739 446  C 742.36 446  745 448.64  745 452  C 745 455.36  742.36 458  739 458  C 735.64 458  733 455.36  733 452  C 733 448.64  735.64 446  739 446  Z " fill-rule="nonzero" fill="#f0f0f0" stroke="none" />
  <path d="M 739 446.5  C 742.08 446.5  744.5 448.92  744.5 452  C 744.5 455.08  742.08 457.5  739 457.5  C 735.92 457.5  733.5 455.08  733.5 452  C 733.5 448.92  735.92 446.5  739 446.5  Z " stroke-width="1" stroke="#797979" fill="none" />
  <path d="M 739 455  C 737.32 455  736 453.68  736 452  C 736 450.32  737.32 449  739 449  C 740.68 449  742 450.32  742 452  C 742 453.68  740.68 455  739 455  " fill-rule="nonzero" fill="#797979" stroke="none" />
</svg>