<?xml version="1.0" encoding="utf-8"?>
<svg version="1.1" xmlns:xlink="http://www.w3.org/1999/xlink" width="12px" height="12px" viewBox="1619 446  12 12" xmlns="http://www.w3.org/2000/svg">
  <path d="M 1625 446  C 1628.36 446  1631 448.64  1631 452  C 1631 455.36  1628.36 458  1625 458  C 1621.64 458  1619 455.36  1619 452  C 1619 448.64  1621.64 446  1625 446  Z " fill-rule="nonzero" fill="#ffffff" stroke="none" />
  <path d="M 1625 446.5  C 1628.08 446.5  1630.5 448.92  1630.5 452  C 1630.5 455.08  1628.08 457.5  1625 457.5  C 1621.92 457.5  1619.5 455.08  1619.5 452  C 1619.5 448.92  1621.92 446.5  1625 446.5  Z " stroke-width="1" stroke="#797979" fill="none" />
  <path d="M 1625 455  C 1623.32 455  1622 453.68  1622 452  C 1622 450.32  1623.32 449  1625 449  C 1626.68 449  1628 450.32  1628 452  C 1628 453.68  1626.68 455  1625 455  " fill-rule="nonzero" fill="#797979" stroke="none" />
</svg>