<?xml version="1.0" encoding="utf-8"?>
<svg version="1.1" xmlns:xlink="http://www.w3.org/1999/xlink" width="12px" height="12px" viewBox="1699 446  12 12" xmlns="http://www.w3.org/2000/svg">
  <path d="M 1705 446  C 1708.36 446  1711 448.64  1711 452  C 1711 455.36  1708.36 458  1705 458  C 1701.64 458  1699 455.36  1699 452  C 1699 448.64  1701.64 446  1705 446  Z " fill-rule="nonzero" fill="#f0f0f0" stroke="none" />
  <path d="M 1705 446.5  C 1708.08 446.5  1710.5 448.92  1710.5 452  C 1710.5 455.08  1708.08 457.5  1705 457.5  C 1701.92 457.5  1699.5 455.08  1699.5 452  C 1699.5 448.92  1701.92 446.5  1705 446.5  Z " stroke-width="1" stroke="#797979" fill="none" />
  <path d="M 1705 455  C 1703.32 455  1702 453.68  1702 452  C 1702 450.32  1703.32 449  1705 449  C 1706.68 449  1708 450.32  1708 452  C 1708 453.68  1706.68 455  1705 455  " fill-rule="nonzero" fill="#797979" stroke="none" />
</svg>