<?xml version="1.0" encoding="utf-8"?>
<svg version="1.1" xmlns:xlink="http://www.w3.org/1999/xlink" width="12px" height="12px" viewBox="2069 446  12 12" xmlns="http://www.w3.org/2000/svg">
  <path d="M 2075 446  C 2078.36 446  2081 448.64  2081 452  C 2081 455.36  2078.36 458  2075 458  C 2071.64 458  2069 455.36  2069 452  C 2069 448.64  2071.64 446  2075 446  Z " fill-rule="nonzero" fill="#ffffff" stroke="none" />
  <path d="M 2075 446.5  C 2078.08 446.5  2080.5 448.92  2080.5 452  C 2080.5 455.08  2078.08 457.5  2075 457.5  C 2071.92 457.5  2069.5 455.08  2069.5 452  C 2069.5 448.92  2071.92 446.5  2075 446.5  Z " stroke-width="1" stroke="#797979" fill="none" />
  <path d="M 2075 455  C 2073.32 455  2072 453.68  2072 452  C 2072 450.32  2073.32 449  2075 449  C 2076.68 449  2078 450.32  2078 452  C 2078 453.68  2076.68 455  2075 455  " fill-rule="nonzero" fill="#797979" stroke="none" />
</svg>