<?xml version="1.0" encoding="utf-8"?>
<svg version="1.1" xmlns:xlink="http://www.w3.org/1999/xlink" width="12px" height="12px" viewBox="2149 446  12 12" xmlns="http://www.w3.org/2000/svg">
  <path d="M 2155 446  C 2158.36 446  2161 448.64  2161 452  C 2161 455.36  2158.36 458  2155 458  C 2151.64 458  2149 455.36  2149 452  C 2149 448.64  2151.64 446  2155 446  Z " fill-rule="nonzero" fill="#ffffff" stroke="none" />
  <path d="M 2155 446.5  C 2158.08 446.5  2160.5 448.92  2160.5 452  C 2160.5 455.08  2158.08 457.5  2155 457.5  C 2151.92 457.5  2149.5 455.08  2149.5 452  C 2149.5 448.92  2151.92 446.5  2155 446.5  Z " stroke-width="1" stroke="#797979" fill="none" />
  <path d="M 2155 455  C 2153.32 455  2152 453.68  2152 452  C 2152 450.32  2153.32 449  2155 449  C 2156.68 449  2158 450.32  2158 452  C 2158 453.68  2156.68 455  2155 455  " fill-rule="nonzero" fill="#797979" stroke="none" />
</svg>