<?xml version="1.0" encoding="utf-8"?>
<svg version="1.1" xmlns:xlink="http://www.w3.org/1999/xlink" width="12px" height="12px" viewBox="3077 446  12 12" xmlns="http://www.w3.org/2000/svg">
  <path d="M 3083 446  C 3086.36 446  3089 448.64  3089 452  C 3089 455.36  3086.36 458  3083 458  C 3079.64 458  3077 455.36  3077 452  C 3077 448.64  3079.64 446  3083 446  Z " fill-rule="nonzero" fill="#ffffff" stroke="none" />
  <path d="M 3083 446.5  C 3086.08 446.5  3088.5 448.92  3088.5 452  C 3088.5 455.08  3086.08 457.5  3083 457.5  C 3079.92 457.5  3077.5 455.08  3077.5 452  C 3077.5 448.92  3079.92 446.5  3083 446.5  Z " stroke-width="1" stroke="#797979" fill="none" />
  <path d="M 3083 455  C 3081.32 455  3080 453.68  3080 452  C 3080 450.32  3081.32 449  3083 449  C 3084.68 449  3086 450.32  3086 452  C 3086 453.68  3084.68 455  3083 455  " fill-rule="nonzero" fill="#797979" stroke="none" />
</svg>