<?xml version="1.0" encoding="utf-8"?>
<svg version="1.1" xmlns:xlink="http://www.w3.org/1999/xlink" width="12px" height="12px" viewBox="2997 446  12 12" xmlns="http://www.w3.org/2000/svg">
  <path d="M 3003 446  C 3006.36 446  3009 448.64  3009 452  C 3009 455.36  3006.36 458  3003 458  C 2999.64 458  2997 455.36  2997 452  C 2997 448.64  2999.64 446  3003 446  Z " fill-rule="nonzero" fill="#f0f0f0" stroke="none" />
  <path d="M 3003 446.5  C 3006.08 446.5  3008.5 448.92  3008.5 452  C 3008.5 455.08  3006.08 457.5  3003 457.5  C 2999.92 457.5  2997.5 455.08  2997.5 452  C 2997.5 448.92  2999.92 446.5  3003 446.5  Z " stroke-width="1" stroke="#797979" fill="none" />
  <path d="M 3003 455  C 3001.32 455  3000 453.68  3000 452  C 3000 450.32  3001.32 449  3003 449  C 3004.68 449  3006 450.32  3006 452  C 3006 453.68  3004.68 455  3003 455  " fill-rule="nonzero" fill="#797979" stroke="none" />
</svg>