<?xml version="1.0" encoding="utf-8"?>
<svg version="1.1" xmlns:xlink="http://www.w3.org/1999/xlink" width="12px" height="12px" viewBox="365 447  12 12" xmlns="http://www.w3.org/2000/svg">
  <path d="M 371 447  C 374.36 447  377 449.64  377 453  C 377 456.36  374.36 459  371 459  C 367.64 459  365 456.36  365 453  C 365 449.64  367.64 447  371 447  Z " fill-rule="nonzero" fill="#ffffff" stroke="none" />
  <path d="M 371 447.5  C 374.08 447.5  376.5 449.92  376.5 453  C 376.5 456.08  374.08 458.5  371 458.5  C 367.92 458.5  365.5 456.08  365.5 453  C 365.5 449.92  367.92 447.5  371 447.5  Z " stroke-width="1" stroke="#797979" fill="none" />
  <path d="M 371 456  C 369.32 456  368 454.68  368 453  C 368 451.32  369.32 450  371 450  C 372.68 450  374 451.32  374 453  C 374 454.68  372.68 456  371 456  " fill-rule="nonzero" fill="#797979" stroke="none" />
</svg>