<?xml version="1.0" encoding="utf-8"?>
<svg version="1.1" xmlns:xlink="http://www.w3.org/1999/xlink" width="12px" height="12px" viewBox="365 535  12 12" xmlns="http://www.w3.org/2000/svg">
  <path d="M 371 535  C 374.36 535  377 537.64  377 541  C 377 544.36  374.36 547  371 547  C 367.64 547  365 544.36  365 541  C 365 537.64  367.64 535  371 535  Z " fill-rule="nonzero" fill="#f0f0f0" stroke="none" />
  <path d="M 371 535.5  C 374.08 535.5  376.5 537.92  376.5 541  C 376.5 544.08  374.08 546.5  371 546.5  C 367.92 546.5  365.5 544.08  365.5 541  C 365.5 537.92  367.92 535.5  371 535.5  Z " stroke-width="1" stroke="#797979" fill="none" />
  <path d="M 371 544  C 369.32 544  368 542.68  368 541  C 368 539.32  369.32 538  371 538  C 372.68 538  374 539.32  374 541  C 374 542.68  372.68 544  371 544  " fill-rule="nonzero" fill="#797979" stroke="none" />
</svg>