<?xml version="1.0" encoding="utf-8"?>
<svg version="1.1" xmlns:xlink="http://www.w3.org/1999/xlink" width="12px" height="12px" viewBox="813 534  12 12" xmlns="http://www.w3.org/2000/svg">
  <path d="M 819 534  C 822.36 534  825 536.64  825 540  C 825 543.36  822.36 546  819 546  C 815.64 546  813 543.36  813 540  C 813 536.64  815.64 534  819 534  Z " fill-rule="nonzero" fill="#ffffff" stroke="none" />
  <path d="M 819 534.5  C 822.08 534.5  824.5 536.92  824.5 540  C 824.5 543.08  822.08 545.5  819 545.5  C 815.92 545.5  813.5 543.08  813.5 540  C 813.5 536.92  815.92 534.5  819 534.5  Z " stroke-width="1" stroke="#797979" fill="none" />
  <path d="M 819 543  C 817.32 543  816 541.68  816 540  C 816 538.32  817.32 537  819 537  C 820.68 537  822 538.32  822 540  C 822 541.68  820.68 543  819 543  " fill-rule="nonzero" fill="#797979" stroke="none" />
</svg>