<?xml version="1.0" encoding="utf-8"?>
<svg version="1.1" xmlns:xlink="http://www.w3.org/1999/xlink" width="12px" height="12px" viewBox="1185 534  12 12" xmlns="http://www.w3.org/2000/svg">
  <path d="M 1191 534  C 1194.36 534  1197 536.64  1197 540  C 1197 543.36  1194.36 546  1191 546  C 1187.64 546  1185 543.36  1185 540  C 1185 536.64  1187.64 534  1191 534  Z " fill-rule="nonzero" fill="#f0f0f0" stroke="none" />
  <path d="M 1191 534.5  C 1194.08 534.5  1196.5 536.92  1196.5 540  C 1196.5 543.08  1194.08 545.5  1191 545.5  C 1187.92 545.5  1185.5 543.08  1185.5 540  C 1185.5 536.92  1187.92 534.5  1191 534.5  Z " stroke-width="1" stroke="#797979" fill="none" />
  <path d="M 1191 543  C 1189.32 543  1188 541.68  1188 540  C 1188 538.32  1189.32 537  1191 537  C 1192.68 537  1194 538.32  1194 540  C 1194 541.68  1192.68 543  1191 543  " fill-rule="nonzero" fill="#797979" stroke="none" />
</svg>