<?xml version="1.0" encoding="utf-8"?>
<svg version="1.1" xmlns:xlink="http://www.w3.org/1999/xlink" width="12px" height="12px" viewBox="1265 446  12 12" xmlns="http://www.w3.org/2000/svg">
  <path d="M 1271 446  C 1274.36 446  1277 448.64  1277 452  C 1277 455.36  1274.36 458  1271 458  C 1267.64 458  1265 455.36  1265 452  C 1265 448.64  1267.64 446  1271 446  Z " fill-rule="nonzero" fill="#f0f0f0" stroke="none" />
  <path d="M 1271 446.5  C 1274.08 446.5  1276.5 448.92  1276.5 452  C 1276.5 455.08  1274.08 457.5  1271 457.5  C 1267.92 457.5  1265.5 455.08  1265.5 452  C 1265.5 448.92  1267.92 446.5  1271 446.5  Z " stroke-width="1" stroke="#797979" fill="none" />
  <path d="M 1271 455  C 1269.32 455  1268 453.68  1268 452  C 1268 450.32  1269.32 449  1271 449  C 1272.68 449  1274 450.32  1274 452  C 1274 453.68  1272.68 455  1271 455  " fill-rule="nonzero" fill="#797979" stroke="none" />
</svg>