<?xml version="1.0" encoding="utf-8"?>
<svg version="1.1" xmlns:xlink="http://www.w3.org/1999/xlink" width="12px" height="12px" viewBox="1185 446  12 12" xmlns="http://www.w3.org/2000/svg">
  <path d="M 1191 446  C 1194.36 446  1197 448.64  1197 452  C 1197 455.36  1194.36 458  1191 458  C 1187.64 458  1185 455.36  1185 452  C 1185 448.64  1187.64 446  1191 446  Z " fill-rule="nonzero" fill="#ffffff" stroke="none" />
  <path d="M 1191 446.5  C 1194.08 446.5  1196.5 448.92  1196.5 452  C 1196.5 455.08  1194.08 457.5  1191 457.5  C 1187.92 457.5  1185.5 455.08  1185.5 452  C 1185.5 448.92  1187.92 446.5  1191 446.5  Z " stroke-width="1" stroke="#797979" fill="none" />
  <path d="M 1191 455  C 1189.32 455  1188 453.68  1188 452  C 1188 450.32  1189.32 449  1191 449  C 1192.68 449  1194 450.32  1194 452  C 1194 453.68  1192.68 455  1191 455  " fill-rule="nonzero" fill="#797979" stroke="none" />
</svg>