<?xml version="1.0" encoding="utf-8"?>
<svg version="1.1" xmlns:xlink="http://www.w3.org/1999/xlink" width="12px" height="12px" viewBox="1715 446  12 12" xmlns="http://www.w3.org/2000/svg">
  <path d="M 1721 446  C 1724.36 446  1727 448.64  1727 452  C 1727 455.36  1724.36 458  1721 458  C 1717.64 458  1715 455.36  1715 452  C 1715 448.64  1717.64 446  1721 446  Z " fill-rule="nonzero" fill="#ffffff" stroke="none" />
  <path d="M 1721 446.5  C 1724.08 446.5  1726.5 448.92  1726.5 452  C 1726.5 455.08  1724.08 457.5  1721 457.5  C 1717.92 457.5  1715.5 455.08  1715.5 452  C 1715.5 448.92  1717.92 446.5  1721 446.5  Z " stroke-width="1" stroke="#797979" fill="none" />
  <path d="M 1721 455  C 1719.32 455  1718 453.68  1718 452  C 1718 450.32  1719.32 449  1721 449  C 1722.68 449  1724 450.32  1724 452  C 1724 453.68  1722.68 455  1721 455  " fill-rule="nonzero" fill="#797979" stroke="none" />
</svg>