<?xml version="1.0" encoding="utf-8"?>
<svg version="1.1" xmlns:xlink="http://www.w3.org/1999/xlink" width="12px" height="12px" viewBox="2183 534  12 12" xmlns="http://www.w3.org/2000/svg">
  <path d="M 2189 534  C 2192.36 534  2195 536.64  2195 540  C 2195 543.36  2192.36 546  2189 546  C 2185.64 546  2183 543.36  2183 540  C 2183 536.64  2185.64 534  2189 534  Z " fill-rule="nonzero" fill="#f0f0f0" stroke="none" />
  <path d="M 2189 534.5  C 2192.08 534.5  2194.5 536.92  2194.5 540  C 2194.5 543.08  2192.08 545.5  2189 545.5  C 2185.92 545.5  2183.5 543.08  2183.5 540  C 2183.5 536.92  2185.92 534.5  2189 534.5  Z " stroke-width="1" stroke="#797979" fill="none" />
  <path d="M 2189 543  C 2187.32 543  2186 541.68  2186 540  C 2186 538.32  2187.32 537  2189 537  C 2190.68 537  2192 538.32  2192 540  C 2192 541.68  2190.68 543  2189 543  " fill-rule="nonzero" fill="#797979" stroke="none" />
</svg>