<?xml version="1.0" encoding="utf-8"?>
<svg version="1.1" xmlns:xlink="http://www.w3.org/1999/xlink" width="6px" height="6px" xmlns="http://www.w3.org/2000/svg">
  <g transform="matrix(1 0 0 1 -258 -427 )">
    <path d="M 4.06640625 1.16015625  C 3.74088541666666 0.970052083333314  3.38541666666666 0.875  3 0.875  C 2.61458333333334 0.875  2.25911458333334 0.970052083333314  1.93359375 1.16015625  C 1.60807291666666 1.35026041666669  1.35026041666666 1.60807291666669  1.16015625 1.93359375  C 0.970052083333343 2.25911458333331  0.875 2.61458333333331  0.875 3  C 0.875 3.38541666666669  0.970052083333343 3.74088541666669  1.16015625 4.06640625  C 1.35026041666666 4.39192708333331  1.60807291666666 4.64973958333331  1.93359375 4.83984375  C 2.25911458333334 5.02994791666669  2.61458333333334 5.125  3 5.125  C 3.38541666666666 5.125  3.74088541666666 5.02994791666669  4.06640625 4.83984375  C 4.39192708333334 4.64973958333331  4.64973958333334 4.39192708333331  4.83984375 4.06640625  C 5.02994791666666 3.74088541666669  5.125 3.38541666666669  5.125 3  C 5.125 2.61458333333331  5.02994791666666 2.25911458333331  4.83984375 1.93359375  C 4.64973958333334 1.60807291666669  4.39192708333334 1.35026041666669  4.06640625 1.16015625  Z M 5.59765625 1.494140625  C 5.86588541666666 1.95377604166669  6 2.45572916666669  6 3  C 6 3.54427083333331  5.86588541666666 4.04622395833331  5.59765625 4.505859375  C 5.32942708333334 4.96549479166669  4.96549479166666 5.32942708333331  4.505859375 5.59765625  C 4.04622395833334 5.86588541666669  3.54427083333334 6  3 6  C 2.45572916666666 6  1.95377604166666 5.86588541666669  1.494140625 5.59765625  C 1.03450520833334 5.32942708333331  0.670572916666657 4.96549479166669  0.40234375 4.505859375  C 0.134114583333343 4.04622395833331  0 3.54427083333331  0 3  C 0 2.45572916666669  0.134114583333343 1.95377604166669  0.40234375 1.494140625  C 0.670572916666657 1.03450520833331  1.03450520833334 0.670572916666686  1.494140625 0.40234375  C 1.95377604166666 0.134114583333314  2.45572916666666 0  3 0  C 3.54427083333334 0  4.04622395833334 0.134114583333314  4.505859375 0.40234375  C 4.96549479166666 0.670572916666686  5.32942708333334 1.03450520833331  5.59765625 1.494140625  Z " fill-rule="nonzero" fill="#333333" stroke="none" transform="matrix(1 0 0 1 258 427 )" />
  </g>
</svg>