<?xml version="1.0" encoding="utf-8"?>
<svg version="1.1" xmlns:xlink="http://www.w3.org/1999/xlink" width="72px" height="72px" xmlns="http://www.w3.org/2000/svg">
  <g transform="matrix(1 0 0 1 -219 -788 )">
    <path d="M 255 788  C 275.16 788  291 803.84  291 824  C 291 844.16  275.16 860  255 860  C 234.84 860  219 844.16  219 824  C 219 803.84  234.84 788  255 788  Z " fill-rule="nonzero" fill="#ffffff" stroke="none" />
    <path d="M 255 788.5  C 274.88 788.5  290.5 804.12  290.5 824  C 290.5 843.88  274.88 859.5  255 859.5  C 235.12 859.5  219.5 843.88  219.5 824  C 219.5 804.12  235.12 788.5  255 788.5  Z " stroke-width="1" stroke="#797979" fill="none" />
  </g>
</svg>