<?xml version="1.0" encoding="utf-8"?>
<svg version="1.1" xmlns:xlink="http://www.w3.org/1999/xlink" width="110px" height="70px" xmlns="http://www.w3.org/2000/svg">
  <defs>
    <linearGradient gradientUnits="userSpaceOnUse" x1="770" y1="1345" x2="770" y2="1415" id="LinearGradient5357">
      <stop id="Stop5358" stop-color="#ffffff" offset="0" />
      <stop id="Stop5359" stop-color="#f2f2f2" offset="0" />
      <stop id="Stop5360" stop-color="#e4e4e4" offset="1" />
      <stop id="Stop5361" stop-color="#ffffff" offset="1" />
    </linearGradient>
  </defs>
  <g transform="matrix(1 0 0 1 -715 -1345 )">
    <path d="M 725.5 1414.5  L 824.5 1414.5  L 824.5 1355.5  L 819.5 1355.5  L 819.5 1350.5  L 814.5 1350.5  L 814.5 1345.5  L 715.5 1345.5  L 715.5 1404.5  L 720.5 1404.5  L 720.5 1409.5  L 725.5 1409.5  L 725.5 1414.5  Z " fill-rule="nonzero" fill="url(#LinearGradient5357)" stroke="none" />
    <path d="M 725.5 1414.5  L 824.5 1414.5  L 824.5 1355.5  L 819.5 1355.5  L 819.5 1350.5  L 814.5 1350.5  L 814.5 1345.5  L 715.5 1345.5  L 715.5 1404.5  L 720.5 1404.5  L 720.5 1409.5  L 725.5 1409.5  L 725.5 1414.5  Z " stroke-width="1" stroke="#797979" fill="none" />
    <path d="M 819.5 1356  L 819.5 1409.5  L 726 1409.5  M 814.5 1351  L 814.5 1404.5  L 721 1404.5  " stroke-width="1" stroke="#797979" fill="none" />
  </g>
</svg>