<?xml version="1.0" encoding="utf-8"?>
<svg version="1.1" xmlns:xlink="http://www.w3.org/1999/xlink" width="24px" height="24px" xmlns="http://www.w3.org/2000/svg">
  <g transform="matrix(1 0 0 1 -959 -214 )">
    <path d="M 971 214  C 977.72 214  983 219.28  983 226  C 983 232.72  977.72 238  971 238  C 964.28 238  959 232.72  959 226  C 959 219.28  964.28 214  971 214  Z " fill-rule="nonzero" fill="#ff7a7a" stroke="none" />
    <path d="M 971 214.5  C 977.44 214.5  982.5 219.56  982.5 226  C 982.5 232.44  977.44 237.5  971 237.5  C 964.56 237.5  959.5 232.44  959.5 226  C 959.5 219.56  964.56 214.5  971 214.5  Z " stroke-width="1" stroke="#797979" fill="none" />
  </g>
</svg>