<?xml version="1.0" encoding="utf-8"?>
<svg version="1.1" xmlns:xlink="http://www.w3.org/1999/xlink" width="86px" height="55px" xmlns="http://www.w3.org/2000/svg">
  <defs>
    <linearGradient gradientUnits="userSpaceOnUse" x1="571" y1="140" x2="571" y2="195" id="LinearGradient4696">
      <stop id="Stop4697" stop-color="#ffffff" offset="0" />
      <stop id="Stop4698" stop-color="#f2f2f2" offset="0" />
      <stop id="Stop4699" stop-color="#e4e4e4" offset="1" />
      <stop id="Stop4700" stop-color="#ffffff" offset="1" />
    </linearGradient>
  </defs>
  <g transform="matrix(1 0 0 1 -528 -140 )">
    <path d="M 548 194.5  L 604 194.5  C 609.32 194.5  613.5 190.32  613.5 185  L 613.5 160  C 613.5 156.019603773678  611.16005511139 152.677374335159  607.753426824863 151.246573175137  C 606.804162307016 148.986446856925  605.013553143075 147.195837692984  602.753426824863 146.246573175137  C 601.322625664841 142.83994488861  597.980396226322 140.5  594 140.5  L 538 140.5  C 532.68 140.5  528.5 144.68  528.5 150  L 528.5 175  C 528.5 178.980396226322  530.83994488861 182.322625664841  534.246573175137 183.753426824863  C 535.195837692984 186.013553143075  536.986446856925 187.804162307016  539.246573175137 188.753426824863  C 540.677374335159 192.16005511139  544.019603773678 194.5  548 194.5  Z " fill-rule="nonzero" fill="url(#LinearGradient4696)" stroke="none" />
    <path d="M 548.5 194.5  L 603.5 194.5  C 609.1 194.5  613.5 190.1  613.5 184.5  L 613.5 160.5  C 613.5 156.382075431273  611.120786603431 152.913027243428  607.634752186914 151.365247813086  C 606.644031495375 149.13386628665  604.86613371335 147.355968504626  602.634752186914 146.365247813086  C 601.086972756572 142.879213396569  597.617924568727 140.5  593.5 140.5  L 538.5 140.5  C 532.9 140.5  528.5 144.9  528.5 150.5  L 528.5 174.5  C 528.5 178.617924568727  530.879213396569 182.086972756572  534.365247813086 183.634752186914  C 535.355968504625 185.86613371335  537.13386628665 187.644031495374  539.365247813086 188.634752186914  C 540.913027243428 192.120786603431  544.382075431273 194.5  548.5 194.5  Z " stroke-width="1" stroke="#797979" fill="none" />
    <path d="M 607.678014577568 151.071985422432  C 608.207220379431 152.263905668009  608.5 153.592028340291  608.5 155  L 608.5 179.5  C 608.5 185.1  604.1 189.5  598.5 189.5  L 543 189.5  C 539.087971659709 189.5  535.792375881257 187.23974727326  534.321985422432 183.928014577568  M 602.678014577568 146.071985422432  C 603.207220379431 147.263905668009  603.5 148.592028340291  603.5 150  L 603.5 174.499  C 603.5 180.099  599.1 184.499  593.5 184.499  L 538 184.5  C 536.592028340291 184.5  535.263905668009 184.207220379431  534.071985422432 183.678014577568  " stroke-width="1" stroke="#797979" fill="none" />
  </g>
</svg>