<?xml version="1.0" encoding="utf-8"?>
<svg version="1.1" xmlns:xlink="http://www.w3.org/1999/xlink" width="51px" height="81px" xmlns="http://www.w3.org/2000/svg">
  <defs>
    <linearGradient gradientUnits="userSpaceOnUse" x1="115" y1="1799" x2="115" y2="1879" id="LinearGradient8815">
      <stop id="Stop8816" stop-color="#ffffff" offset="0" />
      <stop id="Stop8817" stop-color="#f2f2f2" offset="0" />
      <stop id="Stop8818" stop-color="#e4e4e4" offset="1" />
      <stop id="Stop8819" stop-color="#ffffff" offset="1" />
    </linearGradient>
  </defs>
  <g transform="matrix(1 0 0 1 -90 -1799 )">
    <path d="M 115 1799.5  C 120.32 1799.5  124.5 1803.68  124.5 1809  C 124.5 1814.32  120.32 1818.5  115 1818.5  C 109.68 1818.5  105.5 1814.32  105.5 1809  C 105.5 1803.68  109.68 1799.5  115 1799.5  Z " fill-rule="nonzero" fill="url(#LinearGradient8815)" stroke="none" />
    <path d="M 115 1799.5  C 120.32 1799.5  124.5 1803.68  124.5 1809  C 124.5 1814.32  120.32 1818.5  115 1818.5  C 109.68 1818.5  105.5 1814.32  105.5 1809  C 105.5 1803.68  109.68 1799.5  115 1799.5  Z " stroke-width="1" stroke="#797979" fill="none" />
    <path d="M 90 1829  L 140 1829  M 115 1819  L 115 1854  M 95 1879  L 115 1854  M 115 1854  L 135 1879  " stroke-width="1" stroke="#797979" fill="none" />
  </g>
</svg>