<?xml version="1.0" encoding="utf-8"?>
<svg version="1.1" xmlns:xlink="http://www.w3.org/1999/xlink" width="70px" height="90px" xmlns="http://www.w3.org/2000/svg">
  <defs>
    <linearGradient gradientUnits="userSpaceOnUse" x1="141" y1="475" x2="141" y2="565" id="LinearGradient8479">
      <stop id="Stop8480" stop-color="#ffffff" offset="0" />
      <stop id="Stop8481" stop-color="#f2f2f2" offset="0" />
      <stop id="Stop8482" stop-color="#e4e4e4" offset="1" />
      <stop id="Stop8483" stop-color="#ffffff" offset="1" />
    </linearGradient>
  </defs>
  <g transform="matrix(1 0 0 1 -106 -475 )">
    <path d="M 116.5 564.5  L 175.5 564.5  L 175.5 495.5  L 155.5 475.5  L 106.5 475.5  L 106.5 554.5  L 111.5 554.5  L 111.5 559.5  L 116.5 559.5  L 116.5 564.5  Z " fill-rule="nonzero" fill="url(#LinearGradient8479)" stroke="none" />
    <path d="M 116.5 564.5  L 175.5 564.5  L 175.5 495.5  L 155.5 475.5  L 106.5 475.5  L 106.5 554.5  L 111.5 554.5  L 111.5 559.5  L 116.5 559.5  L 116.5 564.5  Z " stroke-width="1" stroke="#797979" fill="none" />
    <path d="M 165.5 490.5  L 170.5 491  L 170.5 559.5  L 117 559.5  M 155.5 476  L 155.5 485.5  L 165.5 485.5  L 165.5 554.5  L 112 554.5  M 175 495.5  L 170.5 495.5  " stroke-width="1" stroke="#797979" fill="none" />
  </g>
</svg>