<?xml version="1.0" encoding="utf-8"?>
<svg version="1.1" xmlns:xlink="http://www.w3.org/1999/xlink" width="10px" height="18px" xmlns="http://www.w3.org/2000/svg">
  <g transform="matrix(1 0 0 1 -419 -276 )">
    <path d="M 9.82817869415783 8.5851703406814  C 9.94272623138613 8.70541082164332  10 8.84368737474947  10 9  C 10 9.15631262525053  9.94272623138613 9.29458917835668  9.82817869415783 9.4148296593186  L 1.82130584192407 17.8196392785572  C 1.70675830469634 17.9398797595191  1.57502863688421 18  1.4261168384877 18  C 1.27720504009176 18  1.14547537227963 17.9398797595191  1.03092783505133 17.8196392785572  L 0.171821305842172 16.9178356713427  C 0.057273768613868 16.7975951903807  0 16.6593186372745  0 16.503006012024  C 0 16.3466933867735  0.057273768613868 16.2084168336674  0.171821305842172 16.0881763527054  L 6.92439862542983 9  L 0.171821305842172 1.91182364729459  C 0.057273768613868 1.79158316633267  0 1.65330661322644  0 1.49699398797595  C 0 1.34068136272545  0.057273768613868 1.20240480961926  0.171821305842172 1.08216432865731  L 1.03092783505133 0.180360721442879  C 1.14547537227963 0.0601202404809596  1.27720504009176 0  1.4261168384877 0  C 1.57502863688421 0  1.70675830469634 0.0601202404809596  1.82130584192407 0.180360721442879  L 9.82817869415783 8.5851703406814  Z " fill-rule="nonzero" fill="#333333" stroke="none" transform="matrix(1 0 0 1 419 276 )" />
  </g>
</svg>