<?xml version="1.0" encoding="utf-8"?>
<svg version="1.1" xmlns:xlink="http://www.w3.org/1999/xlink" width="48px" height="48px" xmlns="http://www.w3.org/2000/svg">
  <g transform="matrix(1 0 0 1 -862 -230 )">
    <path d="M 886 230  C 899.44 230  910 240.56  910 254  C 910 267.44  899.44 278  886 278  C 872.56 278  862 267.44  862 254  C 862 240.56  872.56 230  886 230  Z " fill-rule="nonzero" fill="#ffffff" stroke="none" />
    <path d="M 886 230.5  C 899.16 230.5  909.5 240.84  909.5 254  C 909.5 267.16  899.16 277.5  886 277.5  C 872.84 277.5  862.5 267.16  862.5 254  C 862.5 240.84  872.84 230.5  886 230.5  Z " stroke-width="1" stroke="#797979" fill="none" />
  </g>
</svg>