<?xml version="1.0" encoding="utf-8"?>
<svg version="1.1" xmlns:xlink="http://www.w3.org/1999/xlink" width="24px" height="24px" xmlns="http://www.w3.org/2000/svg">
  <g transform="matrix(1 0 0 1 -284 -1093 )">
    <path d="M 296 1093  C 302.72 1093  308 1098.28  308 1105  C 308 1111.72  302.72 1117  296 1117  C 289.28 1117  284 1111.72  284 1105  C 284 1098.28  289.28 1093  296 1093  Z " fill-rule="nonzero" fill="#ffffff" stroke="none" />
    <path d="M 296 1093.5  C 302.44 1093.5  307.5 1098.56  307.5 1105  C 307.5 1111.44  302.44 1116.5  296 1116.5  C 289.56 1116.5  284.5 1111.44  284.5 1105  C 284.5 1098.56  289.56 1093.5  296 1093.5  Z " stroke-width="1" stroke="#797979" fill="none" />
  </g>
</svg>