<?xml version="1.0" encoding="utf-8"?>
<svg version="1.1" xmlns:xlink="http://www.w3.org/1999/xlink" width="31px" height="31px" xmlns="http://www.w3.org/2000/svg">
  <g transform="matrix(1 0 0 1 -90 -760 )">
    <path d="M 105.5 760  C 114.18 760  121 766.82  121 775.5  C 121 784.18  114.18 791  105.5 791  C 96.82 791  90 784.18  90 775.5  C 90 766.82  96.82 760  105.5 760  Z " fill-rule="nonzero" fill="#ffffff" stroke="none" />
    <path d="M 105.5 760.5  C 113.9 760.5  120.5 767.1  120.5 775.5  C 120.5 783.9  113.9 790.5  105.5 790.5  C 97.1 790.5  90.5 783.9  90.5 775.5  C 90.5 767.1  97.1 760.5  105.5 760.5  Z " stroke-width="1" stroke="#797979" fill="none" />
  </g>
</svg>