<?xml version="1.0" encoding="utf-8"?>
<svg version="1.1" xmlns:xlink="http://www.w3.org/1999/xlink" width="55px" height="55px" xmlns="http://www.w3.org/2000/svg">
  <defs>
    <mask fill="white" id="clip1077">
      <path d="M 0 27.5  C 0 12.0999999999999  12.0999999999999 0  27.5 0  C 36.8241796741487 0  44.9386145440874 4.43573094876518  49.8900789969515 11.3539672334281  C 53.1165513963244 15.8620271492987  55 21.4241796741483  55 27.5  C 55 42.9000000000001  42.9000000000001 55  27.5 55  C 12.0999999999999 55  0 42.9000000000001  0 27.5  Z " fill-rule="evenodd" />
    </mask>
  </defs>
  <g transform="matrix(1 0 0 1 -3965 -1404 )">
    <path d="M 0 27.5  C 0 12.0999999999999  12.0999999999999 0  27.5 0  C 36.8241796741487 0  44.9386145440874 4.43573094876518  49.8900789969515 11.3539672334281  C 53.1165513963244 15.8620271492987  55 21.4241796741483  55 27.5  C 55 42.9000000000001  42.9000000000001 55  27.5 55  C 12.0999999999999 55  0 42.9000000000001  0 27.5  Z " fill-rule="nonzero" fill="#ffffff" stroke="none" transform="matrix(1 0 0 1 3965 1404 )" />
    <path d="M 0 27.5  C 0 12.0999999999999  12.0999999999999 0  27.5 0  C 36.8241796741487 0  44.9386145440874 4.43573094876518  49.8900789969515 11.3539672334281  C 53.1165513963244 15.8620271492987  55 21.4241796741483  55 27.5  C 55 42.9000000000001  42.9000000000001 55  27.5 55  C 12.0999999999999 55  0 42.9000000000001  0 27.5  Z " stroke-width="2" stroke="#797979" fill="none" transform="matrix(1 0 0 1 3965 1404 )" mask="url(#clip1077)" />
  </g>
</svg>