<?xml version="1.0" encoding="utf-8"?>
<svg version="1.1" xmlns:xlink="http://www.w3.org/1999/xlink" width="54px" height="15px" xmlns="http://www.w3.org/2000/svg">
  <defs>
    <mask fill="white" id="clip7916">
      <path d="M 0 14  L 0 0  L 14 0  L 20.7407407407407 0  L 53 0  L 53 14  L 0 14  Z " fill-rule="evenodd" />
    </mask>
  </defs>
  <g transform="matrix(1 0 0 1 -80 -604 )">
    <path d="M 0 14  L 0 0  L 14 0  L 20.7407407407407 0  L 53 0  L 53 14  L 0 14  Z M 51.1699141223234 13.5165810889156  L 1.83008587767659 0.483418911084414  L 20.26849078696 5.35394096259324  L 51.1699141223234 13.5165810889156  Z " fill-rule="nonzero" fill="#f2f2f2" stroke="none" transform="matrix(1 0 0 1 80 604 )" />
    <path d="M 0 14  L 0 0  L 14 0  L 20.7407407407407 0  L 53 0  L 53 14  L 0 14  Z " stroke-width="2" stroke="#797979" fill="none" transform="matrix(1 0 0 1 80 604 )" mask="url(#clip7916)" />
    <path d="M 51.1699141223234 0.483418911084414  L 1.83008587767659 13.5165810889156  M 1.83008587767659 0.483418911084414  L 20.26849078696 5.35394096259324  L 51.1699141223234 13.5165810889156  " stroke-width="1" stroke="#797979" fill="none" transform="matrix(1 0 0 1 80 604 )" />
  </g>
</svg>