<?xml version="1.0" encoding="utf-8"?>
<svg version="1.1" xmlns:xlink="http://www.w3.org/1999/xlink" width="17px" height="17px" xmlns="http://www.w3.org/2000/svg">
  <g transform="matrix(1 0 0 1 -420 -646 )">
    <path d="M 8.24544270833333 10.0162760416667  C 8.31922743055556 10.0900607638889  8.35611979166667 10.1749131944444  8.35611979166667 10.2708333333333  C 8.35611979166667 10.3667534722222  8.31922743055556 10.4516059027778  8.24544270833333 10.525390625  L 4.57096354166667 14.1998697916667  L 6.16471354166667 15.7936197916667  C 6.30490451388889 15.9338107638889  6.375 16.0998263888889  6.375 16.2916666666667  C 6.375 16.4835069444444  6.30490451388889 16.6495225694444  6.16471354166667 16.7897135416667  C 6.02452256944444 16.9299045138889  5.85850694444444 17  5.66666666666667 17  L 0.708333333333333 17  C 0.516493055555556 17  0.350477430555556 16.9299045138889  0.210286458333333 16.7897135416667  C 0.0700954861111111 16.6495225694444  0 16.4835069444444  0 16.2916666666667  L 0 11.3333333333333  C 0 11.1414930555556  0.0700954861111111 10.9754774305556  0.210286458333333 10.8352864583333  C 0.350477430555556 10.6950954861111  0.516493055555556 10.625  0.708333333333333 10.625  C 0.900173611111111 10.625  1.06618923611111 10.6950954861111  1.20638020833333 10.8352864583333  L 2.80013020833333 12.4290364583333  L 6.474609375 8.75455729166667  C 6.54839409722222 8.68077256944444  6.63324652777778 8.64388020833333  6.72916666666667 8.64388020833333  C 6.82508680555556 8.64388020833333  6.90993923611111 8.68077256944444  6.98372395833333 8.75455729166667  L 8.24544270833333 10.0162760416667  Z M 16.7897135416667 0.210286458333333  C 16.9299045138889 0.350477430555553  17 0.516493055555553  17 0.708333333333333  L 17 5.66666666666667  C 17 5.85850694444444  16.9299045138889 6.02452256944444  16.7897135416667 6.16471354166667  C 16.6495225694444 6.30490451388889  16.4835069444444 6.375  16.2916666666667 6.375  C 16.0998263888889 6.375  15.9338107638889 6.30490451388889  15.7936197916667 6.16471354166667  L 14.1998697916667 4.57096354166667  L 10.525390625 8.24544270833333  C 10.4516059027778 8.31922743055556  10.3667534722222 8.35611979166667  10.2708333333333 8.35611979166667  C 10.1749131944444 8.35611979166667  10.0900607638889 8.31922743055556  10.0162760416667 8.24544270833333  L 8.75455729166667 6.98372395833333  C 8.68077256944444 6.90993923611111  8.64388020833333 6.82508680555556  8.64388020833333 6.72916666666667  C 8.64388020833333 6.63324652777778  8.68077256944444 6.54839409722222  8.75455729166667 6.474609375  L 12.4290364583333 2.80013020833333  L 10.8352864583333 1.20638020833333  C 10.6950954861111 1.06618923611111  10.625 0.90017361111111  10.625 0.708333333333333  C 10.625 0.516493055555553  10.6950954861111 0.350477430555553  10.8352864583333 0.210286458333333  C 10.9754774305556 0.0700954861111103  11.1414930555556 0  11.3333333333333 0  L 16.2916666666667 0  C 16.4835069444444 0  16.6495225694444 0.0700954861111103  16.7897135416667 0.210286458333333  Z " fill-rule="nonzero" fill="#666666" stroke="none" transform="matrix(1 0 0 1 420 646 )" />
  </g>
</svg>