<?xml version="1.0" encoding="utf-8"?>
<svg version="1.1" xmlns:xlink="http://www.w3.org/1999/xlink" width="17px" height="17px" xmlns="http://www.w3.org/2000/svg">
  <g transform="matrix(1 0 0 1 -92 -646 )">
    <path d="M 16.7897135416667 0.210286458333333  C 16.9299045138889 0.350477430555553  17 0.516493055555553  17 0.708333333333333  L 17 16.2916666666667  C 17 16.4835069444444  16.9299045138889 16.6495225694444  16.7897135416667 16.7897135416667  C 16.6495225694444 16.9299045138889  16.4835069444444 17  16.2916666666667 17  L 10.625 17  C 10.4331597222222 17  10.2671440972222 16.9299045138889  10.126953125 16.7897135416667  C 9.98676215277778 16.6495225694444  9.91666666666667 16.4835069444444  10 16.2916666666667  L 10 0.708333333333333  C 9.91666666666667 0.516493055555553  9.98676215277778 0.350477430555553  10.126953125 0.210286458333333  C 10.2671440972222 0.0700954861111103  10.4331597222222 0  10.625 0  L 16.2916666666667 0  C 16.4835069444444 0  16.6495225694444 0.0700954861111103  16.7897135416667 0.210286458333333  Z M 6.873046875 0.210286458333333  C 7.01323784722222 0.350477430555553  7.08333333333333 0.516493055555553  7 0.708333333333333  L 7 16.2916666666667  C 7.08333333333333 16.4835069444444  7.01323784722222 16.6495225694444  6.873046875 16.7897135416667  C 6.73285590277778 16.9299045138889  6.56684027777778 17  6.375 17  L 0.708333333333333 17  C 0.516493055555556 17  0.350477430555556 16.9299045138889  0.210286458333333 16.7897135416667  C 0.0700954861111111 16.6495225694444  0 16.4835069444444  0 16.2916666666667  L 0 0.708333333333333  C 0 0.516493055555553  0.0700954861111111 0.350477430555553  0.210286458333333 0.210286458333333  C 0.350477430555556 0.0700954861111103  0.516493055555556 0  0.708333333333333 0  L 6.375 0  C 6.56684027777778 0  6.73285590277778 0.0700954861111103  6.873046875 0.210286458333333  Z " fill-rule="nonzero" fill="#666666" stroke="none" transform="matrix(1 0 0 1 92 646 )" />
  </g>
</svg>