<?xml version="1.0" encoding="utf-8"?>
<svg version="1.1" xmlns:xlink="http://www.w3.org/1999/xlink" width="52px" height="52px" xmlns="http://www.w3.org/2000/svg">
  <g transform="matrix(1 0 0 1 -574 -731 )">
    <path d="M 600 731  C 614.56 731  626 742.44  626 757  C 626 771.56  614.56 783  600 783  C 585.44 783  574 771.56  574 757  C 574 742.44  585.44 731  600 731  Z " fill-rule="nonzero" fill="#ffffff" stroke="none" />
    <path d="M 600 731.5  C 614.28 731.5  625.5 742.72  625.5 757  C 625.5 771.28  614.28 782.5  600 782.5  C 585.72 782.5  574.5 771.28  574.5 757  C 574.5 742.72  585.72 731.5  600 731.5  Z " stroke-width="1" stroke="#797979" fill="none" />
  </g>
</svg>