<?xml version="1.0" encoding="utf-8"?>
<svg version="1.1" xmlns:xlink="http://www.w3.org/1999/xlink" width="52px" height="52px" xmlns="http://www.w3.org/2000/svg">
  <g transform="matrix(1 0 0 1 -1126 -731 )">
    <path d="M 1152 731  C 1166.56 731  1178 742.44  1178 757  C 1178 771.56  1166.56 783  1152 783  C 1137.44 783  1126 771.56  1126 757  C 1126 742.44  1137.44 731  1152 731  Z " fill-rule="nonzero" fill="#ffffff" stroke="none" />
    <path d="M 1152 731.5  C 1166.28 731.5  1177.5 742.72  1177.5 757  C 1177.5 771.28  1166.28 782.5  1152 782.5  C 1137.72 782.5  1126.5 771.28  1126.5 757  C 1126.5 742.72  1137.72 731.5  1152 731.5  Z " stroke-width="1" stroke="#797979" fill="none" />
  </g>
</svg>