<?xml version="1.0" encoding="utf-8"?>
<svg version="1.1" xmlns:xlink="http://www.w3.org/1999/xlink" width="29px" height="29px" xmlns="http://www.w3.org/2000/svg">
  <g transform="matrix(1 0 0 1 -90 -742 )">
    <path d="M 104.5 742  C 112.62 742  119 748.38  119 756.5  C 119 764.62  112.62 771  104.5 771  C 96.38 771  90 764.62  90 756.5  C 90 748.38  96.38 742  104.5 742  Z " fill-rule="nonzero" fill="#ffffff" stroke="none" />
    <path d="M 104.5 742.5  C 112.34 742.5  118.5 748.66  118.5 756.5  C 118.5 764.34  112.34 770.5  104.5 770.5  C 96.66 770.5  90.5 764.34  90.5 756.5  C 90.5 748.66  96.66 742.5  104.5 742.5  Z " stroke-width="1" stroke="#797979" fill="none" />
  </g>
</svg>