<?xml version="1.0" encoding="utf-8"?>
<svg version="1.1" xmlns:xlink="http://www.w3.org/1999/xlink" width="118px" height="118px" xmlns="http://www.w3.org/2000/svg">
  <g transform="matrix(1 0 0 1 -215 -285 )">
    <path d="M 274 285  C 307.04 285  333 310.96  333 344  C 333 377.04  307.04 403  274 403  C 240.96 403  215 377.04  215 344  C 215 310.96  240.96 285  274 285  Z " fill-rule="nonzero" fill="#ffffff" stroke="none" />
    <path d="M 274 285.5  C 306.76 285.5  332.5 311.24  332.5 344  C 332.5 376.76  306.76 402.5  274 402.5  C 241.24 402.5  215.5 376.76  215.5 344  C 215.5 311.24  241.24 285.5  274 285.5  Z " stroke-width="1" stroke="#797979" fill="none" />
  </g>
</svg>