<?xml version="1.0" encoding="utf-8"?>
<svg version="1.1" xmlns:xlink="http://www.w3.org/1999/xlink" width="44px" height="44px" xmlns="http://www.w3.org/2000/svg">
  <g transform="matrix(1 0 0 1 -437 -1024 )">
    <path d="M 459 1024  C 471.32 1024  481 1033.68  481 1046  C 481 1058.32  471.32 1068  459 1068  C 446.68 1068  437 1058.32  437 1046  C 437 1033.68  446.68 1024  459 1024  Z " fill-rule="nonzero" fill="#ffffff" stroke="none" />
    <path d="M 459 1024.5  C 471.04 1024.5  480.5 1033.96  480.5 1046  C 480.5 1058.04  471.04 1067.5  459 1067.5  C 446.96 1067.5  437.5 1058.04  437.5 1046  C 437.5 1033.96  446.96 1024.5  459 1024.5  Z " stroke-width="1" stroke="#797979" fill="none" />
  </g>
</svg>