<?xml version="1.0" encoding="utf-8"?>
<svg version="1.1" xmlns:xlink="http://www.w3.org/1999/xlink" width="57px" height="57px" xmlns="http://www.w3.org/2000/svg">
  <g transform="matrix(1 0 0 1 -225 -1010 )">
    <path d="M 253.5 1010  C 269.46 1010  282 1022.54  282 1038.5  C 282 1054.46  269.46 1067  253.5 1067  C 237.54 1067  225 1054.46  225 1038.5  C 225 1022.54  237.54 1010  253.5 1010  Z " fill-rule="nonzero" fill="#ffffff" stroke="none" />
    <path d="M 253.5 1010.5  C 269.18 1010.5  281.5 1022.82  281.5 1038.5  C 281.5 1054.18  269.18 1066.5  253.5 1066.5  C 237.82 1066.5  225.5 1054.18  225.5 1038.5  C 225.5 1022.82  237.82 1010.5  253.5 1010.5  Z " stroke-width="1" stroke="#797979" fill="none" />
  </g>
</svg>