<?xml version="1.0" encoding="utf-8"?>
<svg version="1.1" xmlns:xlink="http://www.w3.org/1999/xlink" width="286px" height="286px" xmlns="http://www.w3.org/2000/svg">
  <g transform="matrix(1 0 0 1 -1183 -370 )">
    <path d="M 1326 370  C 1406.08 370  1469 432.92  1469 513  C 1469 593.08  1406.08 656  1326 656  C 1245.92 656  1183 593.08  1183 513  C 1183 432.92  1245.92 370  1326 370  Z " fill-rule="nonzero" fill="#ffffff" stroke="none" />
    <path d="M 1326 370.5  C 1405.8 370.5  1468.5 433.2  1468.5 513  C 1468.5 592.8  1405.8 655.5  1326 655.5  C 1246.2 655.5  1183.5 592.8  1183.5 513  C 1183.5 433.2  1246.2 370.5  1326 370.5  Z " stroke-width="1" stroke="#797979" fill="none" />
  </g>
</svg>