<?xml version="1.0" encoding="utf-8"?>
<svg version="1.1" xmlns:xlink="http://www.w3.org/1999/xlink" width="49px" height="15px" xmlns="http://www.w3.org/2000/svg">
  <defs>
    <mask fill="white" id="clip9069">
      <path d="M 0 14  L 0 0  L 19.4598540145985 0  L 48 0  L 48 14  L 0 14  Z " fill-rule="evenodd" />
    </mask>
  </defs>
  <g transform="matrix(1 0 0 1 -939 -540 )">
    <path d="M 0 14  L 0 0  L 19.4598540145985 0  L 48 0  L 48 14  L 0 14  Z " fill-rule="nonzero" fill="#f2f2f2" stroke="none" transform="matrix(1 0 0 1 939 540 )" />
    <path d="M 0 14  L 0 0  L 19.4598540145985 0  L 48 0  L 48 14  L 0 14  Z " stroke-width="2" stroke="#797979" fill="none" transform="matrix(1 0 0 1 939 540 )" mask="url(#clip9069)" />
    <path d="M 46.3542857142857 0.480000000000018  L 1.64571428571429 13.52  M 1.64571428571429 0.480000000000018  L 46.3542857142857 13.52  " stroke-width="1" stroke="#797979" fill="none" transform="matrix(1 0 0 1 939 540 )" />
  </g>
</svg>