<?xml version="1.0" encoding="utf-8"?>
<svg version="1.1" xmlns:xlink="http://www.w3.org/1999/xlink" width="37px" height="31px" xmlns="http://www.w3.org/2000/svg">
  <defs>
    <mask fill="white" id="clip7806">
      <path d="M 9 31  C 3.95999999999998 31  0 24.18  0 15.5  C 0 6.81999999999996  3.95999999999998 0  9 0  L 28 0  C 33.04 0  37 6.81999999999996  37 15.5  C 37 24.18  33.04 31  28 31  L 22.672131147541 31  L 9 31  Z " fill-rule="evenodd" />
    </mask>
  </defs>
  <g transform="matrix(1 0 0 1 -396 -518 )">
    <path d="M 9 31  C 3.95999999999998 31  0 24.18  0 15.5  C 0 6.81999999999996  3.95999999999998 0  9 0  L 28 0  C 33.04 0  37 6.81999999999996  37 15.5  C 37 24.18  33.04 31  28 31  L 22.672131147541 31  L 9 31  Z " fill-rule="nonzero" fill="#ffffff" stroke="none" transform="matrix(1 0 0 1 396 518 )" />
    <path d="M 9 31  C 3.95999999999998 31  0 24.18  0 15.5  C 0 6.81999999999996  3.95999999999998 0  9 0  L 28 0  C 33.04 0  37 6.81999999999996  37 15.5  C 37 24.18  33.04 31  28 31  L 22.672131147541 31  L 9 31  Z " stroke-width="2" stroke="#797979" fill="none" transform="matrix(1 0 0 1 396 518 )" mask="url(#clip7806)" />
  </g>
</svg>