<?xml version="1.0" encoding="utf-8"?>
<svg version="1.1" xmlns:xlink="http://www.w3.org/1999/xlink" width="10px" height="20px" xmlns="http://www.w3.org/2000/svg">
  <g transform="matrix(1 0 0 1 -90 -181 )">
    <path d="M 9.82817869415805 1.20240480961925  C 9.94272623138602 1.33600534402134  10 1.48964595858382  10 1.66332665330663  C 10 1.8370073480294  9.94272623138602 1.99064796259185  9.82817869415805 2.12424849699397  L 3.07560137457044 10  L 9.82817869415805 17.875751503006  C 9.94272623138602 18.0093520374081  10 18.1629926519706  10 18.3366733466934  C 10 18.5103540414162  9.94272623138602 18.6639946559786  9.82817869415805 18.7975951903808  L 8.96907216494844 19.7995991983968  C 8.85452462772051 19.9331997327989  8.72279495990838 20  8.57388316151204 20  C 8.4249713631157 20  8.29324169530355 19.9331997327989  8.17869415807559 19.7995991983968  L 0.171821305841917 10.4609218436874  C 0.0572737686139817 10.3273213092853  0 10.1736806947228  0 10  C 0 9.82631930527722  0.0572737686139817 9.67267869071475  0.171821305841917 9.53907815631263  L 8.17869415807559 0.200400801603195  C 8.29324169530355 0.0668002672010459  8.4249713631157 0  8.57388316151204 0  C 8.72279495990838 0  8.85452462772051 0.0668002672010459  8.96907216494844 0.200400801603195  L 9.82817869415805 1.20240480961925  Z " fill-rule="nonzero" fill="#333333" stroke="none" transform="matrix(1 0 0 1 90 181 )" />
  </g>
</svg>