<?xml version="1.0" encoding="utf-8"?>
<svg version="1.1" xmlns:xlink="http://www.w3.org/1999/xlink" width="19px" height="19px" xmlns="http://www.w3.org/2000/svg">
  <g transform="matrix(1 0 0 1 -976 -173 )">
    <path d="M 15.4056919642857 9.54771205357143  C 15.4975818452381 9.55831473214286  15.5718005952381 9.60249255952381  15.6283482142857 9.68024553571429  L 16.0418526785714 10.2209821428571  C 16.0984002976191 10.2987351190476  16.1213727678571 10.3817894345238  16.1107700892857 10.4701450892857  C 16.1001674107143 10.5585007440476  16.0595238095238 10.6309523809524  15.9888392857143 10.6875  C 15.6848958333333 10.9278273809524  15.2378162202381 11.2759486607143  14.6476004464286 11.7318638392857  C 14.057384672619 12.1877790178571  13.5396205357143 12.587146577381  13.0943080357143 12.9299665178571  C 12.6489955357143 13.2727864583333  12.4122023809524 13.4547991071429  12.3839285714286 13.4760044642857  C 12.1082589285714 13.7021949404762  11.8962053571429 13.871837797619  11.7477678571429 13.9849330357143  C 11.5993303571429 14.0980282738095  11.385509672619 14.242931547619  11.1063058035714 14.4196428571429  C 10.8271019345238 14.5963541666667  10.5567336309524 14.725353422619  10.2952008928571 14.806640625  C 10.0336681547619 14.887927827381  9.77213541666667 14.9285714285714  9.51060267857143 14.9285714285714  L 9.5 14.9285714285714  L 9.48939732142857 14.9285714285714  C 9.22786458333334 14.9285714285714  8.9663318452381 14.887927827381  8.70479910714286 14.806640625  C 8.44326636904762 14.725353422619  8.17466517857143 14.5963541666667  7.89899553571429 14.4196428571429  C 7.62332589285714 14.242931547619  7.4077380952381 14.0962611607143  7.25223214285714 13.9796316964286  C 7.09672619047619 13.8630022321429  6.88467261904762 13.6951264880952  6.61607142857143 13.4760044642857  C 6.58072916666667 13.4477306547619  6.35100446428571 13.2692522321429  5.92689732142857 12.9405691964286  C 5.50279017857143 12.6118861607143  4.99562872023809 12.2195870535714  4.40541294642857 11.763671875  C 3.81519717261905 11.3077566964286  3.38225446428571 10.9737723214286  3.10658482142857 10.76171875  C 3.0288318452381 10.7051711309524  2.98465401785714 10.6327194940476  2.97405133928571 10.5443638392857  C 2.96344866071429 10.4560081845238  2.98642113095238 10.3729538690476  3.04296875 10.2952008928571  L 3.43526785714286 9.74386160714286  C 3.49181547619048 9.66610863095238  3.56780133928571 9.62016369047619  3.66322544642857 9.60602678571429  C 3.75864955357143 9.59188988095238  3.8452380952381 9.61662946428571  3.92299107142857 9.68024553571429  C 4.58742559523809 10.1962425595238  5.66889880952381 11.0303199404762  7.16741071428571 12.1824776785714  C 7.20275297619048 12.2107514880952  7.35649181547619 12.3344494047619  7.62862723214286 12.5535714285714  C 7.90076264880952 12.772693452381  8.11458333333333 12.9370349702381  8.27008928571429 13.0465959821429  C 8.42559523809524 13.1561569940476  8.62527901785714 13.2710193452381  8.869140625 13.3911830357143  C 9.11300223214286 13.5113467261905  9.31975446428571 13.5714285714286  9.48939732142857 13.5714285714286  L 9.5 13.5714285714286  L 9.51060267857143 13.5714285714286  C 9.68024553571429 13.5714285714286  9.88699776785714 13.5113467261905  10.130859375 13.3911830357143  C 10.3747209821429 13.2710193452381  10.5744047619048 13.1561569940476  10.7299107142857 13.0465959821429  C 10.8854166666667 12.9370349702381  11.0992373511905 12.772693452381  11.3713727678571 12.5535714285714  C 11.6435081845238 12.3344494047619  11.7972470238095 12.2107514880952  11.8325892857143 12.1824776785714  C 13.65625 10.7829241071429  14.762462797619 9.92764136904762  15.1512276785714 9.61662946428571  C 15.2289806547619 9.56008184523809  15.3138020833333 9.537109375  15.4056919642857 9.54771205357143  Z M 17.5421316964286 17.5421316964286  C 17.6092819940476 17.4749813988095  17.6428571428571 17.3954613095238  17.6428571428571 17.3035714285714  L 17.6428571428571 7.46428571428572  C 17.0066964285714 6.87760416666667  16.4447544642857 6.38634672619048  15.95703125 5.99051339285714  C 15.3138020833333 5.46744791666667  13.9389880952381 4.3930431547619  11.8325892857143 2.76729910714286  C 11.8113839285714 2.75316220238095  11.659412202381 2.62946428571428  11.3766741071429 2.39620535714286  C 11.0939360119048 2.16294642857143  10.8783482142857 1.99330357142857  10.7299107142857 1.88727678571428  C 10.5814732142857 1.78125  10.383556547619 1.66638764880952  10.1361607142857 1.54268973214286  C 9.88876488095238 1.41899181547619  9.68024553571429 1.35714285714286  9.51060267857143 1.35714285714286  L 9.5 1.35714285714286  L 9.48939732142857 1.35714285714286  C 9.31975446428571 1.35714285714286  9.11123511904762 1.41899181547619  8.86383928571429 1.54268973214286  C 8.61644345238095 1.66638764880952  8.41852678571429 1.78125  8.27008928571429 1.88727678571428  C 8.12165178571429 1.99330357142857  7.90606398809524 2.16294642857143  7.62332589285714 2.39620535714286  C 7.34058779761905 2.62946428571428  7.18861607142857 2.75316220238095  7.16741071428571 2.76729910714286  C 5.64769345238095 3.94066220238095  4.53264508928571 4.80831473214286  3.822265625 5.37025669642857  C 3.11188616071429 5.93219866071428  2.65420386904762 6.29975818452381  2.44921875 6.47293526785714  C 2.24423363095238 6.64611235119048  1.95442708333333 6.90941220238095  1.57979910714286 7.26283482142857  C 1.48084077380952 7.34765625  1.40662202380952 7.41480654761905  1.35714285714286 7.46428571428572  L 1.35714285714286 17.3035714285714  C 1.35714285714286 17.3954613095238  1.39071800595238 17.4749813988095  1.45786830357143 17.5421316964286  C 1.52501860119048 17.6092819940476  1.60453869047619 17.6428571428571  1.69642857142857 17.6428571428571  L 17.3035714285714 17.6428571428571  C 17.3954613095238 17.6428571428571  17.4749813988095 17.6092819940476  17.5421316964286 17.5421316964286  Z M 18.5652901785714 6.46763392857143  C 18.8550967261905 6.73623511904762  19 7.06845238095238  19 7.46428571428572  L 19 17.3035714285714  C 19 17.7700892857143  18.8338913690476 18.1694568452381  18.5016741071429 18.5016741071429  C 18.1694568452381 18.8338913690476  17.7700892857143 19  17.3035714285714 19  L 1.69642857142857 19  C 1.22991071428571 19  0.830543154761905 18.8338913690476  0.498325892857143 18.5016741071429  C 0.166108630952381 18.1694568452381  0 17.7700892857143  0 17.3035714285714  L 0 7.46428571428572  C 0 7.06845238095238  0.144903273809524 6.73623511904762  0.434709821428571 6.46763392857143  C 1.30412946428571 5.66183035714286  2.54110863095238 4.63513764880952  4.14564732142857 3.38755580357143  C 5.75018601190476 2.13997395833333  6.57366071428571 1.4985119047619  6.61607142857143 1.46316964285714  C 6.87053571428571 1.25111607142857  7.07905505952381 1.08324032738095  7.24162946428571 0.959542410714285  C 7.40420386904762 0.835844494047619  7.62155877976191 0.687406994047619  7.89369419642857 0.514229910714285  C 8.16582961309524 0.341052827380951  8.43443080357143 0.212053571428572  8.69949776785714 0.127232142857143  C 8.96456473214286 0.0424107142857152  9.22786458333334 0  9.48939732142857 0  L 9.5 0  L 9.51060267857143 0  C 9.77213541666667 0  10.0354352678571 0.0424107142857152  10.3005022321429 0.127232142857143  C 10.5655691964286 0.212053571428572  10.8341703869048 0.341052827380951  11.1063058035714 0.514229910714285  C 11.3784412202381 0.687406994047619  11.5957961309524 0.835844494047619  11.7583705357143 0.959542410714285  C 11.9209449404762 1.08324032738095  12.1294642857143 1.25111607142857  12.3839285714286 1.46316964285714  C 12.6878720238095 1.71763392857143  13.2392113095238 2.14880952380952  14.0379464285714 2.75669642857143  C 14.836681547619 3.36458333333333  15.6354166666667 3.99014136904762  16.4341517857143 4.63337053571428  C 17.2328869047619 5.27659970238095  17.9432663690476 5.88802083333333  18.5652901785714 6.46763392857143  Z " fill-rule="nonzero" fill="#000000" stroke="none" transform="matrix(1 0 0 1 976 173 )" />
  </g>
</svg>