<?xml version="1.0" encoding="utf-8"?>
<svg version="1.1" xmlns:xlink="http://www.w3.org/1999/xlink" width="27px" height="27px" xmlns="http://www.w3.org/2000/svg">
  <g transform="matrix(1 0 0 1 590 -1509 )">
    <path d="M 4.728515625 14.291015625  C 4.517578125 14.080078125  4.412109375 13.81640625  4.412109375 13.5  C 4.412109375 13.18359375  4.517578125 12.919921875  4.728515625 12.708984375  L 6.328125 11.109375  L 12.69140625 4.74609375  C 12.90234375 4.53515625  13.166015625 4.4296875  13.482421875 4.4296875  C 13.798828125 4.4296875  14.0625 4.53515625  14.2734375 4.74609375  L 15.873046875 6.345703125  C 16.083984375 6.556640625  16.189453125 6.8203125  16.189453125 7.13671875  C 16.189453125 7.453125  16.083984375 7.716796875  15.873046875 7.927734375  L 12.55078125 11.25  L 21.375 11.25  C 21.6796875 11.25  21.943359375 11.361328125  22.166015625 11.583984375  C 22.388671875 11.806640625  22.5 12.0703125  22.5 12.375  L 22.5 14.625  C 22.5 14.9296875  22.388671875 15.193359375  22.166015625 15.416015625  C 21.943359375 15.638671875  21.6796875 15.75  21.375 15.75  L 12.55078125 15.75  L 15.873046875 19.072265625  C 16.095703125 19.294921875  16.20703125 19.55859375  16.20703125 19.86328125  C 16.20703125 20.16796875  16.095703125 20.431640625  15.873046875 20.654296875  L 14.2734375 22.25390625  C 14.0625 22.46484375  13.798828125 22.5703125  13.482421875 22.5703125  C 13.166015625 22.5703125  12.90234375 22.46484375  12.69140625 22.25390625  L 6.328125 15.890625  L 4.728515625 14.291015625  Z M 1.810546875 6.7236328125  C 0.603515625000004 8.7919921875  0 11.05078125  0 13.5  C 0 15.94921875  0.603515625000004 18.2080078125  1.810546875 20.2763671875  C 3.017578125 22.3447265625  4.6552734375 23.982421875  6.7236328125 25.189453125  C 8.7919921875 26.396484375  11.05078125 27  13.5 27  C 15.94921875 27  18.2080078125 26.396484375  20.2763671875 25.189453125  C 22.3447265625 23.982421875  23.982421875 22.3447265625  25.189453125 20.2763671875  C 26.396484375 18.2080078125  27 15.94921875  27 13.5  C 27 11.05078125  26.396484375 8.7919921875  25.189453125 6.7236328125  C 23.982421875 4.6552734375  22.3447265625 3.017578125  20.2763671875 1.810546875  C 18.2080078125 0.603515624999998  15.94921875 0  13.5 0  C 11.05078125 0  8.7919921875 0.603515624999998  6.7236328125 1.810546875  C 4.6552734375 3.017578125  3.017578125 4.6552734375  1.810546875 6.7236328125  Z " fill-rule="nonzero" fill="#000000" stroke="none" transform="matrix(1 0 0 1 -590 1509 )" />
  </g>
</svg>