<?xml version="1.0" encoding="utf-8"?>
<svg version="1.1" xmlns:xlink="http://www.w3.org/1999/xlink" width="83px" height="83px" xmlns="http://www.w3.org/2000/svg">
  <g transform="matrix(1 0 0 1 -367 -2016 )">
    <path d="M 408.5 2016  C 431.74 2016  450 2034.26  450 2057.5  C 450 2080.74  431.74 2099  408.5 2099  C 385.26 2099  367 2080.74  367 2057.5  C 367 2034.26  385.26 2016  408.5 2016  Z " fill-rule="nonzero" fill="#e5e5e5" stroke="none" />
    <path d="M 408.5 2016.5  C 431.46 2016.5  449.5 2034.54  449.5 2057.5  C 449.5 2080.46  431.46 2098.5  408.5 2098.5  C 385.54 2098.5  367.5 2080.46  367.5 2057.5  C 367.5 2034.54  385.54 2016.5  408.5 2016.5  Z " stroke-width="1" stroke="#ffffff" fill="none" />
  </g>
</svg>