<?xml version="1.0" encoding="utf-8"?>
<svg version="1.1" xmlns:xlink="http://www.w3.org/1999/xlink" width="23px" height="23px" xmlns="http://www.w3.org/2000/svg">
  <g transform="matrix(1 0 0 1 -841 -4768 )">
    <path d="M 852.5 4768  C 858.94 4768  864 4773.06  864 4779.5  C 864 4785.94  858.94 4791  852.5 4791  C 846.06 4791  841 4785.94  841 4779.5  C 841 4773.06  846.06 4768  852.5 4768  Z " fill-rule="nonzero" fill="#ffffff" stroke="none" />
    <path d="M 852.5 4768.5  C 858.66 4768.5  863.5 4773.34  863.5 4779.5  C 863.5 4785.66  858.66 4790.5  852.5 4790.5  C 846.34 4790.5  841.5 4785.66  841.5 4779.5  C 841.5 4773.34  846.34 4768.5  852.5 4768.5  Z " stroke-width="1" stroke="#797979" fill="none" />
  </g>
</svg>