<?xml version="1.0" encoding="utf-8"?>
<svg version="1.1" xmlns:xlink="http://www.w3.org/1999/xlink" width="54px" height="54px" xmlns="http://www.w3.org/2000/svg">
  <g transform="matrix(1 0 0 1 -285 -1698 )">
    <path d="M 312 1698  C 327.12 1698  339 1709.88  339 1725  C 339 1740.12  327.12 1752  312 1752  C 296.88 1752  285 1740.12  285 1725  C 285 1709.88  296.88 1698  312 1698  Z " fill-rule="nonzero" fill="#ffffff" stroke="none" />
    <path d="M 312 1698.5  C 326.84 1698.5  338.5 1710.16  338.5 1725  C 338.5 1739.84  326.84 1751.5  312 1751.5  C 297.16 1751.5  285.5 1739.84  285.5 1725  C 285.5 1710.16  297.16 1698.5  312 1698.5  Z " stroke-width="1" stroke="#797979" fill="none" />
  </g>
</svg>