<?xml version="1.0" encoding="utf-8"?>
<svg version="1.1" xmlns:xlink="http://www.w3.org/1999/xlink" width="21px" height="21px" xmlns="http://www.w3.org/2000/svg">
  <g transform="matrix(1 0 0 1 -250 -1722 )">
    <path d="M 260.5 1722  C 266.38 1722  271 1726.62  271 1732.5  C 271 1738.38  266.38 1743  260.5 1743  C 254.62 1743  250 1738.38  250 1732.5  C 250 1726.62  254.62 1722  260.5 1722  Z " fill-rule="nonzero" fill="#ffffff" stroke="none" />
    <path d="M 260.5 1722.5  C 266.1 1722.5  270.5 1726.9  270.5 1732.5  C 270.5 1738.1  266.1 1742.5  260.5 1742.5  C 254.9 1742.5  250.5 1738.1  250.5 1732.5  C 250.5 1726.9  254.9 1722.5  260.5 1722.5  Z " stroke-width="1" stroke="#797979" fill="none" />
  </g>
</svg>