<?xml version="1.0" encoding="utf-8"?>
<svg version="1.1" xmlns:xlink="http://www.w3.org/1999/xlink" width="41px" height="41px" xmlns="http://www.w3.org/2000/svg">
  <g transform="matrix(1 0 0 1 -320 -2286 )">
    <path d="M 340.5 2286  C 351.98 2286  361 2295.02  361 2306.5  C 361 2317.98  351.98 2327  340.5 2327  C 329.02 2327  320 2317.98  320 2306.5  C 320 2295.02  329.02 2286  340.5 2286  Z " fill-rule="nonzero" fill="#d9d9d9" stroke="none" />
    <path d="M 340.5 2286.5  C 351.7 2286.5  360.5 2295.3  360.5 2306.5  C 360.5 2317.7  351.7 2326.5  340.5 2326.5  C 329.3 2326.5  320.5 2317.7  320.5 2306.5  C 320.5 2295.3  329.3 2286.5  340.5 2286.5  Z " stroke-width="1" stroke="#797979" fill="none" />
  </g>
</svg>