<?xml version="1.0" encoding="utf-8"?>
<svg version="1.1" xmlns:xlink="http://www.w3.org/1999/xlink" width="11px" height="11px" xmlns="http://www.w3.org/2000/svg">
  <g transform="matrix(1 0 0 1 -645 -869 )">
    <path d="M 650.5 869  C 653.58 869  656 871.42  656 874.5  C 656 877.58  653.58 880  650.5 880  C 647.42 880  645 877.58  645 874.5  C 645 871.42  647.42 869  650.5 869  Z " fill-rule="nonzero" fill="#ffffff" stroke="none" />
    <path d="M 650.5 869.5  C 653.3 869.5  655.5 871.7  655.5 874.5  C 655.5 877.3  653.3 879.5  650.5 879.5  C 647.7 879.5  645.5 877.3  645.5 874.5  C 645.5 871.7  647.7 869.5  650.5 869.5  Z " stroke-width="1" stroke="#797979" fill="none" />
  </g>
</svg>