<?xml version="1.0" encoding="utf-8"?>
<svg version="1.1" xmlns:xlink="http://www.w3.org/1999/xlink" width="15px" height="15px" xmlns="http://www.w3.org/2000/svg">
  <g transform="matrix(1 0 0 1 -643 -975 )">
    <path d="M 650.5 975  C 654.7 975  658 978.3  658 982.5  C 658 986.7  654.7 990  650.5 990  C 646.3 990  643 986.7  643 982.5  C 643 978.3  646.3 975  650.5 975  Z " fill-rule="nonzero" fill="#ffffff" stroke="none" />
    <path d="M 650.5 975.5  C 654.42 975.5  657.5 978.58  657.5 982.5  C 657.5 986.42  654.42 989.5  650.5 989.5  C 646.58 989.5  643.5 986.42  643.5 982.5  C 643.5 978.58  646.58 975.5  650.5 975.5  Z " stroke-width="1" stroke="#797979" fill="none" />
  </g>
</svg>