<?xml version="1.0" encoding="utf-8"?>
<svg version="1.1" xmlns:xlink="http://www.w3.org/1999/xlink" width="12px" height="12px" viewBox="285 535  12 12" xmlns="http://www.w3.org/2000/svg">
  <path d="M 291 535  C 294.36 535  297 537.64  297 541  C 297 544.36  294.36 547  291 547  C 287.64 547  285 544.36  285 541  C 285 537.64  287.64 535  291 535  Z " fill-rule="nonzero" fill="#f0f0f0" stroke="none" />
  <path d="M 291 535.5  C 294.08 535.5  296.5 537.92  296.5 541  C 296.5 544.08  294.08 546.5  291 546.5  C 287.92 546.5  285.5 544.08  285.5 541  C 285.5 537.92  287.92 535.5  291 535.5  Z " stroke-width="1" stroke="#797979" fill="none" />
  <path d="M 291 544  C 289.32 544  288 542.68  288 541  C 288 539.32  289.32 538  291 538  C 292.68 538  294 539.32  294 541  C 294 542.68  292.68 544  291 544  " fill-rule="nonzero" fill="#797979" stroke="none" />
</svg>