<?xml version="1.0" encoding="utf-8"?>
<svg version="1.1" xmlns:xlink="http://www.w3.org/1999/xlink" width="12px" height="12px" viewBox="1715 534  12 12" xmlns="http://www.w3.org/2000/svg">
  <path d="M 1721 534  C 1724.36 534  1727 536.64  1727 540  C 1727 543.36  1724.36 546  1721 546  C 1717.64 546  1715 543.36  1715 540  C 1715 536.64  1717.64 534  1721 534  Z " fill-rule="nonzero" fill="#f0f0f0" stroke="none" />
  <path d="M 1721 534.5  C 1724.08 534.5  1726.5 536.92  1726.5 540  C 1726.5 543.08  1724.08 545.5  1721 545.5  C 1717.92 545.5  1715.5 543.08  1715.5 540  C 1715.5 536.92  1717.92 534.5  1721 534.5  Z " stroke-width="1" stroke="#797979" fill="none" />
  <path d="M 1721 543  C 1719.32 543  1718 541.68  1718 540  C 1718 538.32  1719.32 537  1721 537  C 1722.68 537  1724 538.32  1724 540  C 1724 541.68  1722.68 543  1721 543  " fill-rule="nonzero" fill="#797979" stroke="none" />
</svg>