<?xml version="1.0" encoding="utf-8"?>
<svg version="1.1" xmlns:xlink="http://www.w3.org/1999/xlink" width="12px" height="12px" viewBox="1635 534  12 12" xmlns="http://www.w3.org/2000/svg">
  <path d="M 1641 534  C 1644.36 534  1647 536.64  1647 540  C 1647 543.36  1644.36 546  1641 546  C 1637.64 546  1635 543.36  1635 540  C 1635 536.64  1637.64 534  1641 534  Z " fill-rule="nonzero" fill="#f0f0f0" stroke="none" />
  <path d="M 1641 534.5  C 1644.08 534.5  1646.5 536.92  1646.5 540  C 1646.5 543.08  1644.08 545.5  1641 545.5  C 1637.92 545.5  1635.5 543.08  1635.5 540  C 1635.5 536.92  1637.92 534.5  1641 534.5  Z " stroke-width="1" stroke="#797979" fill="none" />
  <path d="M 1641 543  C 1639.32 543  1638 541.68  1638 540  C 1638 538.32  1639.32 537  1641 537  C 1642.68 537  1644 538.32  1644 540  C 1644 541.68  1642.68 543  1641 543  " fill-rule="nonzero" fill="#797979" stroke="none" />
</svg>