<?xml version="1.0" encoding="utf-8"?>
<svg version="1.1" xmlns:xlink="http://www.w3.org/1999/xlink" width="14px" height="14px" xmlns="http://www.w3.org/2000/svg">
  <g transform="matrix(1 0 0 1 -867 -335 )">
    <path d="M 9.26497395833333 1.63151041666667  C 8.544921875 1.32161458333333  7.78993055555556 1.16666666666667  7 1.16666666666667  C 6.21006944444444 1.16666666666667  5.455078125 1.32161458333333  4.73502604166667 1.63151041666667  C 4.01497395833333 1.94140625  3.39518229166667 2.35611979166667  2.87565104166667 2.87565104166667  C 2.35611979166667 3.39518229166667  1.94140625 4.01497395833333  1.63151041666667 4.73502604166667  C 1.32161458333333 5.455078125  1.16666666666667 6.21006944444444  1.16666666666667 7  C 1.16666666666667 7.78993055555556  1.32161458333333 8.544921875  1.63151041666667 9.26497395833333  C 1.94140625 9.98502604166667  2.35611979166667 10.6048177083333  2.87565104166667 11.1243489583333  C 3.39518229166667 11.6438802083333  4.01497395833333 12.05859375  4.73502604166667 12.3684895833333  C 5.455078125 12.6783854166667  6.21006944444444 12.8333333333333  7 12.8333333333333  C 7.78993055555556 12.8333333333333  8.544921875 12.6783854166667  9.26497395833333 12.3684895833333  C 9.98502604166667 12.05859375  10.6048177083333 11.6438802083333  11.1243489583333 11.1243489583333  C 11.6438802083333 10.6048177083333  12.05859375 9.98502604166667  12.3684895833333 9.26497395833333  C 12.6783854166667 8.544921875  12.8333333333333 7.78993055555556  12.8333333333333 7  C 12.8333333333333 6.21006944444444  12.6783854166667 5.455078125  12.3684895833333 4.73502604166667  C 12.05859375 4.01497395833333  11.6438802083333 3.39518229166667  11.1243489583333 2.87565104166667  C 10.6048177083333 2.35611979166667  9.98502604166667 1.94140625  9.26497395833333 1.63151041666667  Z M 13.0611979166667 3.486328125  C 13.6870659722222 4.55881076388889  14 5.73003472222222  14 7  C 14 8.26996527777778  13.6870659722222 9.44118923611111  13.0611979166667 10.513671875  C 12.4353298611111 11.5861545138889  11.5861545138889 12.4353298611111  10.513671875 13.0611979166667  C 9.44118923611111 13.6870659722222  8.26996527777778 14  7 14  C 5.73003472222222 14  4.55881076388889 13.6870659722222  3.486328125 13.0611979166667  C 2.41384548611111 12.4353298611111  1.56467013888889 11.5861545138889  0.938802083333333 10.513671875  C 0.312934027777778 9.44118923611111  0 8.26996527777778  0 7  C 0 5.73003472222222  0.312934027777778 4.55881076388889  0.938802083333333 3.486328125  C 1.56467013888889 2.41384548611111  2.41384548611111 1.56467013888889  3.486328125 0.938802083333333  C 4.55881076388889 0.312934027777777  5.73003472222222 0  7 0  C 8.26996527777778 0  9.44118923611111 0.312934027777777  10.513671875 0.938802083333333  C 11.5861545138889 1.56467013888889  12.4353298611111 2.41384548611111  13.0611979166667 3.486328125  Z " fill-rule="nonzero" fill="#000000" stroke="none" transform="matrix(1 0 0 1 867 335 )" />
  </g>
</svg>