<?xml version="1.0" encoding="utf-8"?>
<svg version="1.1" xmlns:xlink="http://www.w3.org/1999/xlink" width="12px" height="12px" viewBox="283 643  12 12" xmlns="http://www.w3.org/2000/svg">
  <path d="M 289 643  C 292.36 643  295 645.64  295 649  C 295 652.36  292.36 655  289 655  C 285.64 655  283 652.36  283 649  C 283 645.64  285.64 643  289 643  Z " fill-rule="nonzero" fill="#f0f0f0" stroke="none" />
  <path d="M 289 643.5  C 292.08 643.5  294.5 645.92  294.5 649  C 294.5 652.08  292.08 654.5  289 654.5  C 285.92 654.5  283.5 652.08  283.5 649  C 283.5 645.92  285.92 643.5  289 643.5  Z " stroke-width="1" stroke="#797979" fill="none" />
  <path d="M 289 652  C 287.32 652  286 650.68  286 649  C 286 647.32  287.32 646  289 646  C 290.68 646  292 647.32  292 649  C 292 650.68  290.68 652  289 652  " fill-rule="nonzero" fill="#797979" stroke="none" />
</svg>