<?xml version="1.0" encoding="utf-8"?>
<svg version="1.1" xmlns:xlink="http://www.w3.org/1999/xlink" width="12px" height="12px" viewBox="283 588  12 12" xmlns="http://www.w3.org/2000/svg">
  <path d="M 289 588  C 292.36 588  295 590.64  295 594  C 295 597.36  292.36 600  289 600  C 285.64 600  283 597.36  283 594  C 283 590.64  285.64 588  289 588  Z " fill-rule="nonzero" fill="#f0f0f0" stroke="none" />
  <path d="M 289 588.5  C 292.08 588.5  294.5 590.92  294.5 594  C 294.5 597.08  292.08 599.5  289 599.5  C 285.92 599.5  283.5 597.08  283.5 594  C 283.5 590.92  285.92 588.5  289 588.5  Z " stroke-width="1" stroke="#797979" fill="none" />
  <path d="M 289 597  C 287.32 597  286 595.68  286 594  C 286 592.32  287.32 591  289 591  C 290.68 591  292 592.32  292 594  C 292 595.68  290.68 597  289 597  " fill-rule="nonzero" fill="#797979" stroke="none" />
</svg>