<?xml version="1.0" encoding="utf-8"?>
<svg version="1.1" xmlns:xlink="http://www.w3.org/1999/xlink" width="12px" height="12px" viewBox="183 643  12 12" xmlns="http://www.w3.org/2000/svg">
  <path d="M 189 643  C 192.36 643  195 645.64  195 649  C 195 652.36  192.36 655  189 655  C 185.64 655  183 652.36  183 649  C 183 645.64  185.64 643  189 643  Z " fill-rule="nonzero" fill="#ffffff" stroke="none" />
  <path d="M 189 643.5  C 192.08 643.5  194.5 645.92  194.5 649  C 194.5 652.08  192.08 654.5  189 654.5  C 185.92 654.5  183.5 652.08  183.5 649  C 183.5 645.92  185.92 643.5  189 643.5  Z " stroke-width="1" stroke="#797979" fill="none" />
  <path d="M 189 652  C 187.32 652  186 650.68  186 649  C 186 647.32  187.32 646  189 646  C 190.68 646  192 647.32  192 649  C 192 650.68  190.68 652  189 652  " fill-rule="nonzero" fill="#797979" stroke="none" />
</svg>