<?xml version="1.0" encoding="utf-8"?>
<svg version="1.1" xmlns:xlink="http://www.w3.org/1999/xlink" width="19px" height="19px" xmlns="http://www.w3.org/2000/svg">
  <g transform="matrix(1 0 0 1 -456 -984 )">
    <path d="M 465.5 984  C 470.82 984  475 988.18  475 993.5  C 475 998.82  470.82 1003  465.5 1003  C 460.18 1003  456 998.82  456 993.5  C 456 988.18  460.18 984  465.5 984  Z " fill-rule="nonzero" fill="#ffffff" stroke="none" />
    <path d="M 465.5 984.5  C 470.54 984.5  474.5 988.46  474.5 993.5  C 474.5 998.54  470.54 1002.5  465.5 1002.5  C 460.46 1002.5  456.5 998.54  456.5 993.5  C 456.5 988.46  460.46 984.5  465.5 984.5  Z " stroke-width="1" stroke="#797979" fill="none" />
  </g>
</svg>