<?xml version="1.0" encoding="utf-8"?>
<svg version="1.1" xmlns:xlink="http://www.w3.org/1999/xlink" width="72px" height="72px" xmlns="http://www.w3.org/2000/svg">
  <g transform="matrix(1 0 0 1 -219 -727 )">
    <path d="M 255 727  C 275.16 727  291 742.84  291 763  C 291 783.16  275.16 799  255 799  C 234.84 799  219 783.16  219 763  C 219 742.84  234.84 727  255 727  Z " fill-rule="nonzero" fill="#ffffff" stroke="none" />
    <path d="M 255 727.5  C 274.88 727.5  290.5 743.12  290.5 763  C 290.5 782.88  274.88 798.5  255 798.5  C 235.12 798.5  219.5 782.88  219.5 763  C 219.5 743.12  235.12 727.5  255 727.5  Z " stroke-width="1" stroke="#797979" fill="none" />
  </g>
</svg>