<?xml version="1.0" encoding="utf-8"?>
<svg version="1.1" xmlns:xlink="http://www.w3.org/1999/xlink" width="73px" height="73px" xmlns="http://www.w3.org/2000/svg">
  <g transform="matrix(1 0 0 1 -2948 -1169 )">
    <path d="M 2984.5 1169  C 3004.94 1169  3021 1185.06  3021 1205.5  C 3021 1225.94  3004.94 1242  2984.5 1242  C 2964.06 1242  2948 1225.94  2948 1205.5  C 2948 1185.06  2964.06 1169  2984.5 1169  Z " fill-rule="nonzero" fill="#ffffff" stroke="none" />
    <path d="M 2984.5 1169.5  C 3004.66 1169.5  3020.5 1185.34  3020.5 1205.5  C 3020.5 1225.66  3004.66 1241.5  2984.5 1241.5  C 2964.34 1241.5  2948.5 1225.66  2948.5 1205.5  C 2948.5 1185.34  2964.34 1169.5  2984.5 1169.5  Z " stroke-width="1" stroke="#797979" fill="none" />
  </g>
</svg>