<?xml version="1.0" encoding="utf-8"?>
<svg version="1.1" xmlns:xlink="http://www.w3.org/1999/xlink" width="46px" height="46px" xmlns="http://www.w3.org/2000/svg">
  <defs>
    <mask fill="white" id="clip1069">
      <path d="M 0 23  C 0 10.1199999999999  10.1199999999999 0  23 0  C 30.7984048183789 0  37.5850230732367 3.70988406623997  41.7262478883595 9.49604532250351  C 44.4247520769259 13.2664227066862  46 17.9184048183786  46 23  C 46 35.8800000000001  35.8800000000001 46  23 46  C 10.1199999999999 46  0 35.8800000000001  0 23  Z " fill-rule="evenodd" />
    </mask>
  </defs>
  <g transform="matrix(1 0 0 1 -4141 -1343 )">
    <path d="M 0 23  C 0 10.1199999999999  10.1199999999999 0  23 0  C 30.7984048183789 0  37.5850230732367 3.70988406623997  41.7262478883595 9.49604532250351  C 44.4247520769259 13.2664227066862  46 17.9184048183786  46 23  C 46 35.8800000000001  35.8800000000001 46  23 46  C 10.1199999999999 46  0 35.8800000000001  0 23  Z " fill-rule="nonzero" fill="#ffffff" stroke="none" transform="matrix(1 0 0 1 4141 1343 )" />
    <path d="M 0 23  C 0 10.1199999999999  10.1199999999999 0  23 0  C 30.7984048183789 0  37.5850230732367 3.70988406623997  41.7262478883595 9.49604532250351  C 44.4247520769259 13.2664227066862  46 17.9184048183786  46 23  C 46 35.8800000000001  35.8800000000001 46  23 46  C 10.1199999999999 46  0 35.8800000000001  0 23  Z " stroke-width="2" stroke="#797979" fill="none" transform="matrix(1 0 0 1 4141 1343 )" mask="url(#clip1069)" />
  </g>
</svg>