<?xml version="1.0" encoding="utf-8"?>
<svg version="1.1" xmlns:xlink="http://www.w3.org/1999/xlink" width="46px" height="46px" xmlns="http://www.w3.org/2000/svg">
  <g transform="matrix(1 0 0 1 -4141 -1674 )">
    <path d="M 4164 1674  C 4176.88 1674  4187 1684.12  4187 1697  C 4187 1709.88  4176.88 1720  4164 1720  C 4151.12 1720  4141 1709.88  4141 1697  C 4141 1684.12  4151.12 1674  4164 1674  Z " fill-rule="nonzero" fill="#ffffff" stroke="none" />
    <path d="M 4164 1674.5  C 4176.6 1674.5  4186.5 1684.4  4186.5 1697  C 4186.5 1709.6  4176.6 1719.5  4164 1719.5  C 4151.4 1719.5  4141.5 1709.6  4141.5 1697  C 4141.5 1684.4  4151.4 1674.5  4164 1674.5  Z " stroke-width="1" stroke="#797979" fill="none" />
  </g>
</svg>