<?xml version="1.0" encoding="utf-8"?>
<svg version="1.1" xmlns:xlink="http://www.w3.org/1999/xlink" width="12px" height="12px" viewBox="183 667  12 12" xmlns="http://www.w3.org/2000/svg">
  <path d="M 189 667  C 192.36 667  195 669.64  195 673  C 195 676.36  192.36 679  189 679  C 185.64 679  183 676.36  183 673  C 183 669.64  185.64 667  189 667  Z " fill-rule="nonzero" fill="#ffffff" stroke="none" />
  <path d="M 189 667.5  C 192.08 667.5  194.5 669.92  194.5 673  C 194.5 676.08  192.08 678.5  189 678.5  C 185.92 678.5  183.5 676.08  183.5 673  C 183.5 669.92  185.92 667.5  189 667.5  Z " stroke-width="1" stroke="#797979" fill="none" />
  <path d="M 189 676  C 187.32 676  186 674.68  186 673  C 186 671.32  187.32 670  189 670  C 190.68 670  192 671.32  192 673  C 192 674.68  190.68 676  189 676  " fill-rule="nonzero" fill="#797979" stroke="none" />
</svg>