<?xml version="1.0" encoding="utf-8"?>
<svg version="1.1" xmlns:xlink="http://www.w3.org/1999/xlink" width="12px" height="12px" viewBox="283 667  12 12" xmlns="http://www.w3.org/2000/svg">
  <path d="M 289 667  C 292.36 667  295 669.64  295 673  C 295 676.36  292.36 679  289 679  C 285.64 679  283 676.36  283 673  C 283 669.64  285.64 667  289 667  Z " fill-rule="nonzero" fill="#f0f0f0" stroke="none" />
  <path d="M 289 667.5  C 292.08 667.5  294.5 669.92  294.5 673  C 294.5 676.08  292.08 678.5  289 678.5  C 285.92 678.5  283.5 676.08  283.5 673  C 283.5 669.92  285.92 667.5  289 667.5  Z " stroke-width="1" stroke="#797979" fill="none" />
  <path d="M 289 676  C 287.32 676  286 674.68  286 673  C 286 671.32  287.32 670  289 670  C 290.68 670  292 671.32  292 673  C 292 674.68  290.68 676  289 676  " fill-rule="nonzero" fill="#797979" stroke="none" />
</svg>