<?xml version="1.0" encoding="utf-8"?>
<svg version="1.1" xmlns:xlink="http://www.w3.org/1999/xlink" width="12px" height="12px" viewBox="183 612  12 12" xmlns="http://www.w3.org/2000/svg">
  <path d="M 189 612  C 192.36 612  195 614.64  195 618  C 195 621.36  192.36 624  189 624  C 185.64 624  183 621.36  183 618  C 183 614.64  185.64 612  189 612  Z " fill-rule="nonzero" fill="#f0f0f0" stroke="none" />
  <path d="M 189 612.5  C 192.08 612.5  194.5 614.92  194.5 618  C 194.5 621.08  192.08 623.5  189 623.5  C 185.92 623.5  183.5 621.08  183.5 618  C 183.5 614.92  185.92 612.5  189 612.5  Z " stroke-width="1" stroke="#797979" fill="none" />
  <path d="M 189 621  C 187.32 621  186 619.68  186 618  C 186 616.32  187.32 615  189 615  C 190.68 615  192 616.32  192 618  C 192 619.68  190.68 621  189 621  " fill-rule="nonzero" fill="#797979" stroke="none" />
</svg>