<?xml version="1.0" encoding="utf-8"?>
<svg version="1.1" xmlns:xlink="http://www.w3.org/1999/xlink" width="12px" height="12px" viewBox="183 588  12 12" xmlns="http://www.w3.org/2000/svg">
  <path d="M 189 588  C 192.36 588  195 590.64  195 594  C 195 597.36  192.36 600  189 600  C 185.64 600  183 597.36  183 594  C 183 590.64  185.64 588  189 588  Z " fill-rule="nonzero" fill="#ffffff" stroke="none" />
  <path d="M 189 588.5  C 192.08 588.5  194.5 590.92  194.5 594  C 194.5 597.08  192.08 599.5  189 599.5  C 185.92 599.5  183.5 597.08  183.5 594  C 183.5 590.92  185.92 588.5  189 588.5  Z " stroke-width="1" stroke="#797979" fill="none" />
  <path d="M 189 597  C 187.32 597  186 595.68  186 594  C 186 592.32  187.32 591  189 591  C 190.68 591  192 592.32  192 594  C 192 595.68  190.68 597  189 597  " fill-rule="nonzero" fill="#797979" stroke="none" />
</svg>