<?xml version="1.0" encoding="utf-8"?>
<svg version="1.1" xmlns:xlink="http://www.w3.org/1999/xlink" width="110px" height="110px" xmlns="http://www.w3.org/2000/svg">
  <g transform="matrix(1 0 0 1 -215 -286 )">
    <path d="M 270 286  C 300.8 286  325 310.2  325 341  C 325 371.8  300.8 396  270 396  C 239.2 396  215 371.8  215 341  C 215 310.2  239.2 286  270 286  Z " fill-rule="nonzero" fill="#ffffff" stroke="none" />
    <path d="M 270 286.5  C 300.52 286.5  324.5 310.48  324.5 341  C 324.5 371.52  300.52 395.5  270 395.5  C 239.48 395.5  215.5 371.52  215.5 341  C 215.5 310.48  239.48 286.5  270 286.5  Z " stroke-width="1" stroke="#797979" fill="none" />
  </g>
</svg>