<?xml version="1.0" encoding="utf-8"?>
<svg version="1.1" xmlns:xlink="http://www.w3.org/1999/xlink" width="11px" height="11px" xmlns="http://www.w3.org/2000/svg">
  <g transform="matrix(1 0 0 1 -507 -548 )">
    <path d="M 1.59819194690265 7.04754327433628  C 1.02266328318584 5.5976196460177  1.30587677876106 3.99997185840708  2.24705186725664 2.84989849557522  L 2.23794864106195 3.49268631858407  L 3.53213397734513 3.51999651504425  L 3.58119108619469 0.668182267256638  L 0.729894714513274 0.619631382300885  L 0.703090741946903 1.91381671858407  L 1.33273745876106 1.92241436823009  C 0.0295022375221236 3.43564835053097  -0.376124222654867 5.58250374876106  0.394591945486726 7.52544543017699  C 1.23816033486726 9.65262153637168  3.2747599100885 10.9908133947788  5.48583194548673 10.9908133947788  C 5.85906525522124 10.9908133947788  6.23736080389381 10.952376630177  6.61565635256637 10.8739883133628  L 6.35115113132743 9.60660306557522  C 4.35098414017699 10.0233379682301  2.35172343221239 8.94763161424779  1.59821369769911 7.04751828681416  Z M 10.6048342477876 3.47393920353982  C 9.61864277876106 0.988781238938053  7.00248805309735 -0.419194424778761  4.38475380530974 0.125999646017699  L 4.64875409734513 1.39338489380531  C 6.64892108849557 0.976649991150442  8.64818179646018 2.05235634513274  9.40169153097345 3.95143392035398  C 9.97772512389381 5.40239330088496  9.69400669911504 7.00159471681416  8.75182175221239 8.15153861061947  L 8.75991356637168 7.50318361946903  L 7.46522330088496 7.47890817699115  L 7.42122454690266 10.3302045486726  L 10.2725209185841 10.3742033026549  L 10.2967963610619 9.08001796637168  L 9.6717069539823 9.07192615221239  C 10.9714465115044 7.55972792212389  11.3755193433628 5.41546190442478  10.6047902283186 3.47394438230088  Z " fill-rule="nonzero" fill="#757575" stroke="none" transform="matrix(1 0 0 1 507 548 )" />
  </g>
</svg>