<?xml version="1.0" encoding="utf-8"?>
<svg version="1.1" xmlns:xlink="http://www.w3.org/1999/xlink" width="8px" height="14px" xmlns="http://www.w3.org/2000/svg">
  <g transform="matrix(1 0 0 1 -90 -172 )">
    <path d="M 7.86254295532626 6.67735470941886  C 7.95418098510891 6.77087508350036  8 6.87842351369403  8 7  C 8 7.12157648630597  7.95418098510891 7.22912491649964  7.86254295532626 7.32264529058114  L 1.45704467353926 13.8597194388778  C 1.36540664375707 13.9532398129593  1.26002290950737 14  1.14089347079016 14  C 1.02176403207341 14  0.916380297823707 13.9532398129593  0.824742268041064 13.8597194388778  L 0.137457044673738 13.1583166332665  C 0.0458190148910944 13.064796259185  0 12.9572478289913  0 12.8356713426854  C 0 12.7140948563794  0.0458190148910944 12.6065464261857  0.137457044673738 12.5130260521042  L 5.53951890034386 7  L 0.137457044673738 1.48697394789579  C 0.0458190148910944 1.3934535738143  0 1.28590514362057  0 1.16432865731463  C 0 1.04275217100869  0.0458190148910944 0.935203740814984  0.137457044673738 0.841683366733463  L 0.824742268041064 0.140280561122239  C 0.916380297823707 0.0467601870407464  1.02176403207341 0  1.14089347079016 0  C 1.26002290950737 0  1.36540664375707 0.0467601870407464  1.45704467353926 0.140280561122239  L 7.86254295532626 6.67735470941886  Z " fill-rule="nonzero" fill="#333333" stroke="none" transform="matrix(1 0 0 1 90 172 )" />
  </g>
</svg>