<?xml version="1.0" encoding="utf-8"?>
<svg version="1.1" xmlns:xlink="http://www.w3.org/1999/xlink" width="170px" height="50px" xmlns="http://www.w3.org/2000/svg">
  <g transform="matrix(1 0 0 1 -571 -25 )">
    <path d="M 572 31  A 5 5 0 0 1 577 26 L 735 26  A 5 5 0 0 1 740 31 L 740 69  A 5 5 0 0 1 735 74 L 577 74  A 5 5 0 0 1 572 69 L 572 31  Z " fill-rule="nonzero" fill="#ffffff" stroke="none" fill-opacity="0.247058823529412" />
    <path d="M 571.5 31  A 5.5 5.5 0 0 1 577 25.5 L 735 25.5  A 5.5 5.5 0 0 1 740.5 31 L 740.5 69  A 5.5 5.5 0 0 1 735 74.5 L 577 74.5  A 5.5 5.5 0 0 1 571.5 69 L 571.5 31  Z " stroke-width="1" stroke="#ffffff" fill="none" stroke-opacity="0.298039215686275" />
  </g>
</svg>