<?xml version="1.0" encoding="utf-8"?>
<svg version="1.1" xmlns:xlink="http://www.w3.org/1999/xlink" width="47px" height="47px" xmlns="http://www.w3.org/2000/svg">
  <g transform="matrix(1 0 0 1 -352 -888 )">
    <path d="M 375.5 888  C 388.66 888  399 898.34  399 911.5  C 399 924.66  388.66 935  375.5 935  C 362.34 935  352 924.66  352 911.5  C 352 898.34  362.34 888  375.5 888  Z " fill-rule="nonzero" fill="#ffffff" stroke="none" />
    <path d="M 375.5 888.5  C 388.38 888.5  398.5 898.62  398.5 911.5  C 398.5 924.38  388.38 934.5  375.5 934.5  C 362.62 934.5  352.5 924.38  352.5 911.5  C 352.5 898.62  362.62 888.5  375.5 888.5  Z " stroke-width="1" stroke="#797979" fill="none" />
  </g>
</svg>