<?xml version="1.0" encoding="utf-8"?>
<svg version="1.1" xmlns:xlink="http://www.w3.org/1999/xlink" width="24px" height="24px" xmlns="http://www.w3.org/2000/svg">
  <g transform="matrix(1 0 0 1 -970 -150 )">
    <path d="M 982 150  C 988.72 150  994 155.28  994 162  C 994 168.72  988.72 174  982 174  C 975.28 174  970 168.72  970 162  C 970 155.28  975.28 150  982 150  Z " fill-rule="nonzero" fill="#ff7a7a" stroke="none" />
    <path d="M 982 150.5  C 988.44 150.5  993.5 155.56  993.5 162  C 993.5 168.44  988.44 173.5  982 173.5  C 975.56 173.5  970.5 168.44  970.5 162  C 970.5 155.56  975.56 150.5  982 150.5  Z " stroke-width="1" stroke="#797979" fill="none" />
  </g>
</svg>