<?xml version="1.0" encoding="utf-8"?>
<svg version="1.1" xmlns:xlink="http://www.w3.org/1999/xlink" width="51px" height="81px" xmlns="http://www.w3.org/2000/svg">
  <defs>
    <linearGradient gradientUnits="userSpaceOnUse" x1="25" y1="0" x2="25" y2="80" id="LinearGradient848">
      <stop id="Stop849" stop-color="#ffffff" offset="0" />
      <stop id="Stop850" stop-color="#f2f2f2" offset="0" />
      <stop id="Stop851" stop-color="#e4e4e4" offset="1" />
      <stop id="Stop852" stop-color="#ffffff" offset="1" />
    </linearGradient>
    <mask fill="white" id="clip853">
      <path d="M 15 10  C 15 4.40000000000009  19.4 0  25 0  C 30.6 0  35 4.40000000000009  35 10  C 35 15.5999999999999  30.6 20  25 20  C 19.4 20  15 15.5999999999999  15 10  Z " fill-rule="evenodd" />
    </mask>
  </defs>
  <g transform="matrix(1 0 0 1 -90 -2039 )">
    <path d="M 15 10  C 15 4.40000000000009  19.4 0  25 0  C 30.6 0  35 4.40000000000009  35 10  C 35 15.5999999999999  30.6 20  25 20  C 19.4 20  15 15.5999999999999  15 10  Z M 25 55  L 25.5 20  L 25.5 41  L 25 55  Z " fill-rule="nonzero" fill="url(#LinearGradient848)" stroke="none" transform="matrix(1 0 0 1 90 2039 )" />
    <path d="M 15 10  C 15 4.40000000000009  19.4 0  25 0  C 30.6 0  35 4.40000000000009  35 10  C 35 15.5999999999999  30.6 20  25 20  C 19.4 20  15 15.5999999999999  15 10  Z " stroke-width="2" stroke="#797979" fill="none" transform="matrix(1 0 0 1 90 2039 )" mask="url(#clip853)" />
    <path d="M 0 30.5  L 50 30.5  M 25.5 20  L 25.5 41  L 25 55  M 5 80  L 25 55  M 25 55  L 45 80  " stroke-width="1" stroke="#797979" fill="none" transform="matrix(1 0 0 1 90 2039 )" />
  </g>
</svg>