<?xml version="1.0" encoding="utf-8"?>
<svg version="1.1" xmlns:xlink="http://www.w3.org/1999/xlink" width="59px" height="59px" xmlns="http://www.w3.org/2000/svg">
  <g transform="matrix(1 0 0 1 -823 -1169 )">
    <path d="M 852.5 1169  C 869.02 1169  882 1181.98  882 1198.5  C 882 1215.02  869.02 1228  852.5 1228  C 835.98 1228  823 1215.02  823 1198.5  C 823 1181.98  835.98 1169  852.5 1169  Z " fill-rule="nonzero" fill="#ffffff" stroke="none" />
    <path d="M 852.5 1169.5  C 868.74 1169.5  881.5 1182.26  881.5 1198.5  C 881.5 1214.74  868.74 1227.5  852.5 1227.5  C 836.26 1227.5  823.5 1214.74  823.5 1198.5  C 823.5 1182.26  836.26 1169.5  852.5 1169.5  Z " stroke-width="1" stroke="#797979" fill="none" />
  </g>
</svg>