<?xml version="1.0" encoding="utf-8"?>
<svg version="1.1" xmlns:xlink="http://www.w3.org/1999/xlink" width="32px" height="32px" xmlns="http://www.w3.org/2000/svg">
  <g transform="matrix(1 0 0 1 -975 -1303 )">
    <path d="M 991 1303  C 999.96 1303  1007 1310.04  1007 1319  C 1007 1327.96  999.96 1335  991 1335  C 982.04 1335  975 1327.96  975 1319  C 975 1310.04  982.04 1303  991 1303  Z " fill-rule="nonzero" fill="#ffffff" stroke="none" />
    <path d="M 991 1303.5  C 999.68 1303.5  1006.5 1310.32  1006.5 1319  C 1006.5 1327.68  999.68 1334.5  991 1334.5  C 982.32 1334.5  975.5 1327.68  975.5 1319  C 975.5 1310.32  982.32 1303.5  991 1303.5  Z " stroke-width="1" stroke="#797979" fill="none" />
  </g>
</svg>