<?xml version="1.0" encoding="utf-8"?>
<svg version="1.1" xmlns:xlink="http://www.w3.org/1999/xlink" width="62px" height="15px" xmlns="http://www.w3.org/2000/svg">
  <defs>
    <mask fill="white" id="clip6912">
      <path d="M 0 14  L 0 0  L 61 0  L 61 14  L 39.1688152240638 14  L 0 14  Z " fill-rule="evenodd" />
    </mask>
  </defs>
  <g transform="matrix(1 0 0 1 -309 -682 )">
    <path d="M 0 14  L 0 0  L 61 0  L 61 14  L 39.1688152240638 14  L 0 14  Z M 2.08022369129208 13.5225716118346  L 58.9197763087079 0.477428388165436  L 42.19823831284 4.31515842000397  L 2.08022369129208 13.5225716118346  Z " fill-rule="nonzero" fill="#f2f2f2" stroke="none" transform="matrix(1 0 0 1 309 682 )" />
    <path d="M 0 14  L 0 0  L 61 0  L 61 14  L 39.1688152240638 14  L 0 14  Z " stroke-width="2" stroke="#797979" fill="none" transform="matrix(1 0 0 1 309 682 )" mask="url(#clip6912)" />
    <path d="M 58.9197763087079 0.477428388165436  L 42.19823831284 4.31515842000397  L 2.08022369129208 13.5225716118346  M 2.08022369129208 0.477428388165436  L 58.9197763087079 13.5225716118346  " stroke-width="1" stroke="#797979" fill="none" transform="matrix(1 0 0 1 309 682 )" />
  </g>
</svg>