<?xml version="1.0" encoding="utf-8"?>
<svg version="1.1" xmlns:xlink="http://www.w3.org/1999/xlink" width="29px" height="29px" xmlns="http://www.w3.org/2000/svg">
  <g transform="matrix(1 0 0 1 -90 -602 )">
    <path d="M 104.5 602  C 112.62 602  119 608.38  119 616.5  C 119 624.62  112.62 631  104.5 631  C 96.38 631  90 624.62  90 616.5  C 90 608.38  96.38 602  104.5 602  Z " fill-rule="nonzero" fill="#ffffff" stroke="none" />
    <path d="M 104.5 602.5  C 112.34 602.5  118.5 608.66  118.5 616.5  C 118.5 624.34  112.34 630.5  104.5 630.5  C 96.66 630.5  90.5 624.34  90.5 616.5  C 90.5 608.66  96.66 602.5  104.5 602.5  Z " stroke-width="1" stroke="#797979" fill="none" />
  </g>
</svg>