<?xml version="1.0" encoding="utf-8"?>
<svg version="1.1" xmlns:xlink="http://www.w3.org/1999/xlink" width="31px" height="31px" xmlns="http://www.w3.org/2000/svg">
  <g transform="matrix(1 0 0 1 -90 -549 )">
    <path d="M 105.5 549  C 114.18 549  121 555.82  121 564.5  C 121 573.18  114.18 580  105.5 580  C 96.82 580  90 573.18  90 564.5  C 90 555.82  96.82 549  105.5 549  Z " fill-rule="nonzero" fill="#ffffff" stroke="none" />
    <path d="M 105.5 549.5  C 113.9 549.5  120.5 556.1  120.5 564.5  C 120.5 572.9  113.9 579.5  105.5 579.5  C 97.1 579.5  90.5 572.9  90.5 564.5  C 90.5 556.1  97.1 549.5  105.5 549.5  Z " stroke-width="1" stroke="#797979" fill="none" />
  </g>
</svg>