<?xml version="1.0" encoding="utf-8"?>
<svg version="1.1" xmlns:xlink="http://www.w3.org/1999/xlink" width="29px" height="29px" xmlns="http://www.w3.org/2000/svg">
  <g transform="matrix(1 0 0 1 -90 -813 )">
    <path d="M 104.5 813  C 112.62 813  119 819.38  119 827.5  C 119 835.62  112.62 842  104.5 842  C 96.38 842  90 835.62  90 827.5  C 90 819.38  96.38 813  104.5 813  Z " fill-rule="nonzero" fill="#ffffff" stroke="none" />
    <path d="M 104.5 813.5  C 112.34 813.5  118.5 819.66  118.5 827.5  C 118.5 835.34  112.34 841.5  104.5 841.5  C 96.66 841.5  90.5 835.34  90.5 827.5  C 90.5 819.66  96.66 813.5  104.5 813.5  Z " stroke-width="1" stroke="#797979" fill="none" />
  </g>
</svg>