<?xml version="1.0" encoding="utf-8"?>
<svg version="1.1" xmlns:xlink="http://www.w3.org/1999/xlink" width="60px" height="60px" xmlns="http://www.w3.org/2000/svg">
  <g transform="matrix(1 0 0 1 -86 -251 )">
    <path d="M 116 251  C 132.8 251  146 264.2  146 281  C 146 297.8  132.8 311  116 311  C 99.2 311  86 297.8  86 281  C 86 264.2  99.2 251  116 251  Z " fill-rule="nonzero" fill="#ffffff" stroke="none" />
    <path d="M 116 251.5  C 132.52 251.5  145.5 264.48  145.5 281  C 145.5 297.52  132.52 310.5  116 310.5  C 99.48 310.5  86.5 297.52  86.5 281  C 86.5 264.48  99.48 251.5  116 251.5  Z " stroke-width="1" stroke="#797979" fill="none" />
  </g>
</svg>