<?xml version="1.0" encoding="utf-8"?>
<svg version="1.1" xmlns:xlink="http://www.w3.org/1999/xlink" width="78px" height="78px" xmlns="http://www.w3.org/2000/svg">
  <g transform="matrix(1 0 0 1 -2694 -355 )">
    <path d="M 2733 355  C 2754.84 355  2772 372.16  2772 394  C 2772 415.84  2754.84 433  2733 433  C 2711.16 433  2694 415.84  2694 394  C 2694 372.16  2711.16 355  2733 355  Z " fill-rule="nonzero" fill="#ffffff" stroke="none" />
    <path d="M 2733 355.5  C 2754.56 355.5  2771.5 372.44  2771.5 394  C 2771.5 415.56  2754.56 432.5  2733 432.5  C 2711.44 432.5  2694.5 415.56  2694.5 394  C 2694.5 372.44  2711.44 355.5  2733 355.5  Z " stroke-width="1" stroke="#797979" fill="none" />
  </g>
</svg>